<?xml version="1.0" encoding="UTF-8"?>
<svg xmlns="http://www.w3.org/2000/svg" viewBox="0 0 1080 320" width="1080" height="320" class="ul" role="img" aria-label="Academia Umbral" data-variante="horizontal" data-fondo="oscuro"><title>Academia Umbral</title><style>.ul .u-frame,.ul .u-tw,.ul .u-light,.ul .u-stars path,.ul .u-spark,.ul .u-px rect,.ul .u-l,.ul .u-t,.ul .u-acc{transform-box:fill-box} .ul .u-light{transform-origin:50% 100%} .ul .u-frame,.ul .u-tw{transform-origin:50% 100%} .ul .u-s1,.ul .u-s2,.ul .u-s3,.ul .u-spark{transform-origin:50% 50%} .ul .u-orb{stroke-dasharray:1000 0} .ul .u-comet{stroke-dashoffset:0;opacity:.95} .ul .u-shine{transform-box:view-box} .ul.u-in .u-frame,.ul.u-in .u-tw{animation:u-rise .8s cubic-bezier(.2,.8,.2,1) both} .ul.u-in .u-tw{animation-delay:.1s} .ul.u-in .u-light{animation:u-open .9s cubic-bezier(.3,1.2,.4,1) .35s both} .ul.u-in .u-s1{animation:u-pop .6s cubic-bezier(.3,1.6,.5,1) .95s both} .ul.u-in .u-s2{animation:u-pop .5s cubic-bezier(.3,1.6,.5,1) 1.1s both} .ul.u-in .u-s3{animation:u-pop .5s cubic-bezier(.3,1.6,.5,1) 1.2s both} .ul.u-in .u-orb{animation:u-draw 1.1s cubic-bezier(.6,0,.2,1) .7s both} .ul.u-in .u-orb-b{animation:u-fade 1s ease .8s both} .ul.u-in .u-spark{animation:u-spin .7s cubic-bezier(.3,1.6,.5,1) 1.45s both} .ul.u-in .u-px rect{animation:u-px .6s cubic-bezier(.2,.8,.2,1) both} .ul.u-in .u-px .u-p0{animation-delay:1.2s}.ul.u-in .u-px .u-p1{animation-delay:1.28s}.ul.u-in .u-px .u-p2{animation-delay:1.36s}.ul.u-in .u-px .u-p3{animation-delay:1.44s} .ul.u-in .u-px .u-p4{animation-delay:1.24s}.ul.u-in .u-px .u-p5{animation-delay:1.32s}.ul.u-in .u-px .u-p6{animation-delay:1.4s}.ul.u-in .u-px .u-p7{animation-delay:1.48s} .ul.u-in .u-t{animation:u-fade .5s ease both} .ul.u-in .u-t0{animation-delay:1.25s}.ul.u-in .u-t1{animation-delay:1.31s}.ul.u-in .u-t2{animation-delay:1.37s}.ul.u-in .u-t3{animation-delay:1.43s}.ul.u-in .u-t4{animation-delay:1.49s}.ul.u-in .u-t5{animation-delay:1.55s}.ul.u-in .u-t6{animation-delay:1.61s}.ul.u-in .u-t7{animation-delay:1.67s} .ul.u-in .u-l{animation:u-up .7s cubic-bezier(.2,.9,.2,1) both} .ul.u-in .u-l0{animation-delay:1s}.ul.u-in .u-l1{animation-delay:1.08s}.ul.u-in .u-l2{animation-delay:1.16s}.ul.u-in .u-l3{animation-delay:1.24s}.ul.u-in .u-l4{animation-delay:1.32s}.ul.u-in .u-l5{animation-delay:1.4s} .ul.u-in .u-acc{animation:u-flash .9s ease 1.7s both} .ul .u-glow{animation:u-breath 4.2s ease-in-out 2s infinite} .ul .u-s1{animation:u-tw 4.2s ease-in-out 2s infinite} .ul .u-spark{animation:u-tw2 3.4s ease-in-out 2.4s infinite} .ul .u-comet{animation:u-comet 5.5s linear 1.8s infinite} .ul .u-px rect{animation:u-blink 3.2s ease-in-out infinite} .ul .u-px .u-p1,.ul .u-px .u-p5{animation-delay:-1s}.ul .u-px .u-p2,.ul .u-px .u-p6{animation-delay:-2.1s}.ul .u-px .u-p3,.ul .u-px .u-p7{animation-delay:-.5s} .ul .u-shine{animation:u-shine 7s ease-in-out 2.4s infinite} .ul.u-in .u-comet{animation:u-comet 5.5s linear 1.8s infinite,u-fade .5s ease 1.7s both} .ul.u-in .u-px rect{animation:u-px .6s cubic-bezier(.2,.8,.2,1) both,u-blink 3.2s ease-in-out 2.2s infinite} .ul.u-in .u-s1{animation:u-pop .6s cubic-bezier(.3,1.6,.5,1) .95s both,u-tw 4.2s ease-in-out 2s infinite} .ul.u-in .u-spark{animation:u-spin .7s cubic-bezier(.3,1.6,.5,1) 1.45s both,u-tw2 3.4s ease-in-out 2.4s infinite} .ul:hover .u-glow{animation-duration:1.4s} .ul:hover .u-comet{animation-duration:2.2s} .ul:hover .u-spark{animation-duration:1.2s} @keyframes u-rise{from{opacity:0;transform:translateY(18px) scale(.92)}to{opacity:1;transform:none}} @keyframes u-open{from{transform:scaleY(0);opacity:0}to{transform:none;opacity:1}} @keyframes u-pop{from{transform:scale(0) rotate(-45deg);opacity:0}to{transform:none;opacity:1}} @keyframes u-spin{from{transform:scale(0) rotate(-180deg);opacity:0}to{transform:none;opacity:1}} @keyframes u-draw{from{stroke-dasharray:0 1000;opacity:0}15%{opacity:1}to{stroke-dasharray:1000 0}} @keyframes u-fade{from{opacity:0}} @keyframes u-px{from{opacity:0;transform:translateY(14px) scale(.3)}to{opacity:1;transform:none}} @keyframes u-up{from{opacity:0;transform:translateY(34px)}to{opacity:1;transform:none}} @keyframes u-flash{0%{opacity:0}40%{opacity:1;filter:brightness(1.8)}100%{opacity:1}} @keyframes u-breath{0%,100%{opacity:.35}50%{opacity:1}} @keyframes u-tw{0%,100%{transform:none}50%{transform:scale(1.12) rotate(8deg)}} @keyframes u-tw2{0%,100%{transform:none;opacity:1}50%{transform:scale(.75) rotate(45deg);opacity:.7}} @keyframes u-comet{from{stroke-dashoffset:1000}to{stroke-dashoffset:0}} @keyframes u-blink{0%,100%{opacity:1}50%{opacity:.35}} @keyframes u-shine{0%{transform:translateX(0)}35%,100%{transform:translateX(980px)}} .ul.u-static *,.ul.u-static{animation:none!important} @media (prefers-reduced-motion:reduce){.ul *{animation:none!important}}</style><defs><linearGradient id="uho_fr" x1="0" y1="0" x2="1" y2="1"><stop offset="0" stop-color="#2A1F7A"/><stop offset="1" stop-color="#15103F"/></linearGradient><linearGradient id="uho_dk" x1="0" y1="0" x2="0" y2="1"><stop offset="0" stop-color="#2A1F7A"/><stop offset="1" stop-color="#15103F"/></linearGradient><linearGradient id="uho_dk2" x1="0" y1="0" x2="0" y2="1"><stop offset="0" stop-color="#3A2A9E"/><stop offset="1" stop-color="#1E1660"/></linearGradient><linearGradient id="uho_bev" x1="0" y1="0" x2="1" y2="0"><stop offset="0" stop-color="#4A22C9"/><stop offset=".48" stop-color="#6B3BF5"/><stop offset=".52" stop-color="#8A5CFF"/><stop offset="1" stop-color="#B79BFF"/></linearGradient><radialGradient id="uho_lt" cx=".5" cy=".55" r=".62"><stop offset="0" stop-color="#FFFFFF"/><stop offset=".55" stop-color="#F1EBFF"/><stop offset=".85" stop-color="#B79BFF"/><stop offset="1" stop-color="#8A5CFF"/></radialGradient><radialGradient id="uho_lg" cx=".5" cy=".5" r=".5"><stop offset="0" stop-color="#FFFFFF" stop-opacity=".9"/><stop offset="1" stop-color="#FFFFFF" stop-opacity="0"/></radialGradient><linearGradient id="uho_orb" x1="0" y1="0" x2="1" y2="0"><stop offset="0" stop-color="#6B3BF5"/><stop offset=".5" stop-color="#8A5CFF"/><stop offset="1" stop-color="#E6DBFF"/></linearGradient><clipPath id="uho_front"><path d="M-40 229.7L340 106.3V340H-40Z"/></clipPath><linearGradient id="uho_acc" x1="0" y1="0" x2="1" y2="1"><stop offset="0" stop-color="#B79BFF"/><stop offset=".45" stop-color="#8A5CFF"/><stop offset="1" stop-color="#4A22C9"/></linearGradient><linearGradient id="uho_hi" x1="0" y1="0" x2="1" y2="1"><stop offset="0" stop-color="#fff" stop-opacity=".55"/><stop offset=".22" stop-color="#fff" stop-opacity="0"/></linearGradient><linearGradient id="uho_sh" x1="0" y1="0" x2="1" y2="0"><stop offset="0" stop-color="#fff" stop-opacity="0"/><stop offset=".5" stop-color="#fff" stop-opacity=".75"/><stop offset="1" stop-color="#fff" stop-opacity="0"/></linearGradient></defs><g transform="translate(14 10)"><g class="u-orb-b"><ellipse cx="150" cy="168" rx="146" ry="44" transform="rotate(-18 150 168)" fill="none" stroke="url(#uho_orb)" stroke-width="7" opacity=".55"/></g><path class="u-tw" d="M44 280V104L59.0 70L74 104V280Z" fill="url(#uho_dk)"/><path d="M46 280V104L59.0 70" fill="none" stroke="#8A5CFF" stroke-width="2.5" stroke-linejoin="round" opacity=".9"/><path class="u-tw" d="M226 280V104L241.0 70L256 104V280Z" fill="url(#uho_dk2)"/><path d="M254 280V104L241.0 70" fill="none" stroke="#B79BFF" stroke-width="2.5" stroke-linejoin="round" opacity=".9"/><path class="u-frame" d="M66 284V128C66 80 100 46 150 26C200 46 234 80 234 128V284H166V262H134V284Z" fill="url(#uho_fr)"/><path d="M66 284V128C66 80 100 46 150 26" fill="none" stroke="#8A5CFF" stroke-width="3" stroke-linecap="round" opacity=".85"/><path d="M150 26C200 46 234 80 234 128V284" fill="none" stroke="#6B3BF5" stroke-width="3" stroke-linecap="round" opacity=".55"/><path d="M86 270V134C86 94 112 66 150 50C188 66 214 94 214 134V270H186V140C186 112 170 92 150 82C130 92 114 112 114 140V270Z" fill="url(#uho_bev)"/><path d="M114 270V140C114 112 130 92 150 82" fill="none" stroke="#15103F" stroke-width="2" opacity=".7"/><path class="u-floor" d="M100 270L114 248H186L200 270Z" fill="#6B3BF5" opacity=".9"/><g class="u-light"><path d="M114 252V140C114 112 130 92 150 82C170 92 186 112 186 140V252Z" fill="url(#uho_lt)"/><path class="u-glow" d="M114 252V140C114 112 130 92 150 82C170 92 186 112 186 140V252Z" fill="url(#uho_lg)"/></g><g class="u-stars"><path class="u-s1" d="M150 150Q155.25 174.75 180 180Q155.25 185.25 150 210Q144.75 185.25 120 180Q144.75 174.75 150 150Z" fill="#6B3BF5"/><path class="u-s2" d="M132 119Q133.57 126.42 141 128Q133.57 129.57 132 137Q130.43 129.57 123 128Q130.43 126.42 132 119Z" fill="#6B3BF5"/><path class="u-s3" d="M166 218Q167.75 226.25 176 228Q167.75 229.75 166 238Q164.25 229.75 156 228Q164.25 226.25 166 218Z" fill="#6B3BF5"/></g><g clip-path="url(#uho_front)"><ellipse class="u-orb" cx="150" cy="168" rx="146" ry="44" transform="rotate(-18 150 168)" fill="none" stroke="url(#uho_orb)" stroke-width="7" pathLength="1000" stroke-linecap="round"/><ellipse class="u-comet" cx="150" cy="168" rx="146" ry="44" transform="rotate(-18 150 168)" fill="none" stroke="#FFFFFF" stroke-width="5" pathLength="1000" stroke-linecap="round" stroke-dasharray="70 930"/></g><path class="u-spark" d="M206 7Q208.68 21.32 223 24Q208.68 26.68 206 41Q203.32 26.68 189 24Q203.32 21.32 206 7Z" fill="#8A5CFF"/><g class="u-px"><rect class="u-p0" x="14" y="118" width="15" height="15" rx="1.5" fill="#6B3BF5"/><rect class="u-p1" x="36" y="146" width="11" height="11" rx="1.5" fill="#8A5CFF"/><rect class="u-p2" x="6" y="166" width="9" height="9" rx="1.5" fill="#B79BFF"/><rect class="u-p3" x="26" y="184" width="12" height="12" rx="1.5" fill="#6B3BF5"/><rect class="u-p4" x="264" y="128" width="13" height="13" rx="1.5" fill="#8A5CFF"/><rect class="u-p5" x="284" y="154" width="9" height="9" rx="1.5" fill="#6B3BF5"/><rect class="u-p6" x="268" y="182" width="8" height="8" rx="1.5" fill="#B79BFF"/><rect class="u-p7" x="290" y="112" width="6" height="6" rx="1.5" fill="#B79BFF"/></g></g><g class="u-acad" fill="none" stroke="#F4F2FF" stroke-width="6.5" stroke-linecap="square" stroke-linejoin="miter"><path class="u-t u-t0" d="M356 120L375 86L394 120"/><path class="u-t u-t1" d="M484.57 92.12A17 17 0 1 0 484.57 113.88"/><path class="u-t u-t2" d="M541.14 120L560.14 86L579.14 120"/><path class="u-t u-t3" d="M635.71 86V120H654.71A17 17 0 0 0 654.71 86ZM635.71 86H654.71"/><path class="u-t u-t4" d="M764.29 86H728.29V120H764.29M728.29 103H758.29"/><path class="u-t u-t5" d="M820.86 120V86L837.86 107.08L854.86 86V120"/><path class="u-t u-t6" d="M930.43 86V120"/><path class="u-t u-t7" d="M1004 120L1023 86L1042 120"/></g><defs><mask id="uho_m0" maskUnits="userSpaceOnUse" x="316" y="118" width="220" height="180"><rect x="316" y="118" width="220" height="180" fill="#fff"/><path d="M33.6 98L264.4 98L484.4 318L253.6 318Z" fill="#000"/></mask><clipPath id="uho_c0"><path d="M38.4 98L259.6 98L479.6 318L258.4 318Z"/></clipPath><mask id="uho_m3" maskUnits="userSpaceOnUse" x="670" y="118" width="220" height="180"><rect x="670" y="118" width="220" height="180" fill="#fff"/><path d="M742 201L770 201L808 258L778 258Z" fill="#000" stroke="#000" stroke-width="7.2" stroke-linejoin="round"/></mask><mask id="uho_m5" maskUnits="userSpaceOnUse" x="906" y="118" width="220" height="180"><rect x="906" y="118" width="220" height="180" fill="#fff"/><path d="M996 232L1044 232L1070 258L1022 258Z" fill="#000" stroke="#000" stroke-width="7.2" stroke-linejoin="round"/></mask></defs><g class="u-umb" fill="none" stroke="#F4F2FF" stroke-width="26" stroke-linejoin="miter" stroke-miterlimit="2"><g class="u-l u-l0"><path d="M369 158V210A35 35 0 0 0 439 210V158" mask="url(#uho_m0)"/><g class="u-acc" clip-path="url(#uho_c0)"><path d="M369 158V210A35 35 0 0 0 439 210V158" stroke="url(#uho_acc)"/><path d="M369 158V210A35 35 0 0 0 439 210V158" stroke="url(#uho_hi)" stroke-width="26"/></g></g><g class="u-l u-l1"><path d="M487 258V171L522 216L557 171V258"/></g><g class="u-l u-l2"><path d="M605 258V171H650.5A18.5 18.5 0 0 1 650.5 208H605M605 208H656.5A18.5 18.5 0 0 1 656.5 245H605"/></g><g class="u-l u-l3"><path d="M723 258V171H771.5A21.5 21.5 0 0 1 771.5 214H723" mask="url(#uho_m3)"/><g class="u-acc" stroke="none"><path d="M742 201L770 201L808 258L778 258Z" fill="url(#uho_acc)"/><path d="M742 201L770 201L808 258L778 258Z" fill="url(#uho_hi)"/></g></g><g class="u-l u-l4"><path d="M836 262L876 162L916 262"/><g class="u-acc" stroke="none"><path d="M876 208L894.5 258L857.5 258Z" fill="url(#uho_acc)"/><path d="M876 208L894.5 258L857.5 258Z" fill="url(#uho_hi)"/></g></g><g class="u-l u-l5"><path d="M959 158V245H1028" mask="url(#uho_m5)"/><g class="u-acc" stroke="none"><path d="M996 232L1044 232L1070 258L1022 258Z" fill="url(#uho_acc)"/><path d="M996 232L1044 232L1070 258L1022 258Z" fill="url(#uho_hi)"/></g></g></g><mask id="uho_mk"><g fill="none" stroke="#fff" stroke-width="26" stroke-linejoin="miter" stroke-miterlimit="2"><path d="M369 158V210A35 35 0 0 0 439 210V158M487 258V171L522 216L557 171V258M605 258V171H650.5A18.5 18.5 0 0 1 650.5 208H605M605 208H656.5A18.5 18.5 0 0 1 656.5 245H605M723 258V171H771.5A21.5 21.5 0 0 1 771.5 214H723M836 262L876 162L916 262M959 158V245H1028"/></g></mask><g mask="url(#uho_mk)"><g transform="skewX(-20)"><rect class="u-shine" x="256" y="138" width="70" height="140" fill="url(#uho_sh)"/></g></g></svg>