<?xml version="1.0" encoding="UTF-8"?>
<svg viewBox="0 0 300 494" xmlns="http://www.w3.org/2000/svg" width="300" height="494" role="img"><title>Tomás · rango D</title><style>.av *{transform-box:view-box}.av-breath{transform-origin:150px 330px;animation:av_b 3.8s ease-in-out infinite}.av-head{transform-origin:150px 200px;animation:av_h 3.8s ease-in-out infinite}.av-eyes{transform-origin:150px 139px;animation:av_k 3.8s linear infinite}.av-tail{transform-origin:170px 232px;animation:av_t 3.8s ease-in-out infinite}.av-rim{animation:av_r 1.6s linear infinite}@keyframes av_b{0%,100%{transform:none}50%{transform:scale(1.01,1.015)}}@keyframes av_h{0%,100%{transform:none}50%{transform:translateY(-1.5px) rotate(.8deg)}}@keyframes av_k{0%,88%,96%,100%{transform:none}92%{transform:scaleY(.1)}}@keyframes av_t{0%,100%{transform:none}50%{transform:rotate(-3deg)}}@keyframes av_r{to{stroke-dashoffset:-48}}.av-fla,.av-flb,.av-flc,.av-fl{transform-origin:150px 474px}.av-fla{animation:av_f1 1.3s ease-in-out infinite alternate}.av-flb{animation:av_f2 .9s ease-in-out infinite alternate}.av-flc{animation:av_f1 .7s ease-in-out infinite alternate-reverse}.av-fl{animation:av_f1 1.3s ease-in-out infinite alternate}.av-fl3{animation:av_d 2.4s linear infinite}.av-rip ellipse{transform-origin:150px 470px;animation:av_rp 2.4s ease-out infinite}.av-rip ellipse+ellipse{animation-delay:-1.2s}.av-streak line{animation:av_st 1.6s ease-in infinite}.av-streak line:nth-child(2n){animation-delay:-.8s}.av-streak line:nth-child(3n){animation-delay:-.4s}.av-mc{transform-origin:0 0;animation:av_o 9s linear infinite}.av-glyphs{transform-origin:0 0;animation:av_o 5s linear infinite}.av-ring{animation:av_d 3s linear infinite}.av-ring2{animation:av_d 4s linear infinite reverse}.av-rays{transform-origin:150px 262px;animation:av_o 60s linear infinite}.av-sglow{transform-origin:150px 262px;animation:av_pulse 2.4s ease-in-out infinite}.av-orbit{transform-origin:0 0;animation:av_o 14s linear infinite}.av-em{transform-box:fill-box;transform-origin:50% 50%;animation:av_em 2.6s ease-in infinite}.av-tw{transform-box:fill-box;transform-origin:50% 50%;animation:av_tw 1.8s ease-in-out infinite}.av-tw:nth-child(2n){animation-delay:-.9s}.av-leaf{transform-box:fill-box;transform-origin:50% 50%;animation:av_leaf 4.4s linear infinite}.av-glow{transform-origin:150px 466px;animation:av_pulse 2.4s ease-in-out infinite}.av-rune{animation:av_rune 1.8s ease-in-out infinite}.av-cape{transform-origin:150px 204px;animation:av_cp 3s ease-in-out infinite}.av-halo{transform-origin:150px 128px;animation:av_o 16s linear infinite}.av-wings{transform-origin:150px 230px;animation:av_wg 2.4s ease-in-out infinite}.av-crown{transform-box:fill-box;transform-origin:50% 100%;animation:av_crown 2.4s ease-in-out infinite}@keyframes av_f1{0%{transform:scale(1,1) skewX(0)}50%{transform:scale(1.03,1.06) skewX(1.5deg)}100%{transform:scale(.98,1.02) skewX(-1.5deg)}}@keyframes av_f2{0%{transform:scale(1,.95) skewX(1deg)}100%{transform:scale(1.04,1.08) skewX(-2deg)}}@keyframes av_d{to{stroke-dashoffset:-136}}@keyframes av_rp{0%{transform:scale(.6);opacity:0}30%{opacity:1}100%{transform:scale(1.4);opacity:0}}@keyframes av_st{0%{transform:translateY(20px);opacity:0}40%{opacity:1}100%{transform:translateY(-60px);opacity:0}}@keyframes av_o{to{transform:rotate(360deg)}}@keyframes av_pulse{0%,100%{transform:scale(.97);opacity:.75}50%{transform:scale(1.04);opacity:1}}@keyframes av_em{0%{transform:none;opacity:0}15%{opacity:1}100%{transform:translateY(-150px) rotate(180deg) scale(.5);opacity:0}}@keyframes av_tw{0%,100%{transform:scale(.6);opacity:.4}50%{transform:scale(1.15);opacity:1}}@keyframes av_leaf{0%{transform:translate(0,-20px) rotate(0);opacity:0}15%{opacity:1}85%{opacity:1}100%{transform:translate(24px,120px) rotate(220deg);opacity:0}}@keyframes av_rune{0%,100%{stroke-opacity:.15}50%{stroke-opacity:.6}}@keyframes av_cp{0%,100%{transform:none}25%{transform:skewX(-2deg) scaleX(1.02)}50%{transform:skewX(1deg)}75%{transform:skewX(-1deg) scaleX(.99)}}@keyframes av_wg{0%,100%{transform:scale(.96);opacity:.7}50%{transform:scale(1.06);opacity:1}}@keyframes av_crown{0%,100%{transform:translateY(0)}50%{transform:translateY(-5px)}}.av-up{opacity:0;transform-origin:150px 240px}.av[data-act="rankup"] .av-up{animation:av_upc 2.6s var(--it) ease-out both}.av[data-act="rankup"] .av-gear,.av[data-act="rankup"] .av-aura{animation:av_gearin 2.6s var(--it) ease-out both}.av[data-act="rankup"] .av-move{animation:av_upflash 2.6s var(--it) ease-out both}.av[data-act="rankup"] .m-happy{opacity:1}.av[data-act="rankup"] .av-eo{opacity:0}.av[data-act="rankup"] .av-eh{opacity:1}.av[data-act="rankup"] .av-sparks{opacity:1}.av[data-act="rankup"] .av-sparks path{animation:av_spark 1.1s .9s ease-out 2}.av-gear,.av-aura{transform-origin:150px 300px}@keyframes av_upc{0%{opacity:0;transform:scaleX(.2)}20%{opacity:1;transform:none}45%{opacity:1}75%,100%{opacity:0}}@keyframes av_gearin{0%,30%{opacity:0;transform:scale(.7)}48%{opacity:1;transform:scale(1.08)}60%,100%{opacity:1;transform:none}}@keyframes av_upflash{0%,100%{transform:none;filter:none}10%{transform:translateY(-10px)}32%{filter:brightness(1.9)}44%{transform:translateY(-14px);filter:brightness(1.3)}62%{transform:translateY(2px) scale(1.02,.98);filter:none}74%{transform:none}}.av-m,.av-v,.av-eh,.av-armu,.av-sign,.av-pw,.av-fx>g,.av-gem{opacity:0}.av-move{transform-origin:150px 460px}.av-hd{transform-origin:150px 196px}.av-eo{transform-origin:150px 139px}.av-armu{transform-origin:120px 222px}.av-sh{transform-origin:140px 232px}.av-hairb{transform-origin:150px 190px}.av-bl,.av-br,.av-excl,.av-glint,.av-sparks path,.av-motes circle{transform-box:fill-box;transform-origin:50% 50%}.av[data-expr="neutral"] .m-neutral,.av[data-expr="happy"] .m-happy,.av[data-expr="surprised"] .m-surprised,.av[data-expr="sad"] .m-sad{opacity:1}.av[data-expr="happy"] .av-eo{opacity:0}.av[data-expr="happy"] .av-eh{opacity:1}.av[data-expr="happy"] .av-bl,.av[data-expr="happy"] .av-br{transform:translateY(-3px)}.av[data-expr="surprised"] .av-bl,.av[data-expr="surprised"] .av-br{transform:translateY(-6px)}.av[data-expr="surprised"] .av-eo{transform:scale(1.08)}.av[data-expr="sad"] .av-bl{transform:translateY(-1px) rotate(-13deg)}.av[data-expr="sad"] .av-br{transform:translateY(-1px) rotate(13deg)}.av:not([data-act="idle"]) .av-m{opacity:0}.av:not([data-act="idle"]) .av-eo{opacity:1;transform:none}.av:not([data-act="idle"]) .av-eh{opacity:0}.av:not([data-act="idle"]) .av-bl,.av:not([data-act="idle"]) .av-br{transform:none}.av[data-act="talk"] .v-a{animation:av_v1 .6s step-end infinite}.av[data-act="talk"] .v-e{animation:av_v2 .6s step-end infinite}.av[data-act="talk"] .v-o{animation:av_v3 .6s step-end infinite}.av[data-act="talk"] .v-m{animation:av_v4 .6s step-end infinite}.av[data-act="talk"] .av-hd{animation:av_nod 1.2s ease-in-out infinite}@keyframes av_v1{0%{opacity:1}25%,100%{opacity:0}}@keyframes av_v2{0%,25%{opacity:0}26%{opacity:1}50%,100%{opacity:0}}@keyframes av_v3{0%,50%{opacity:0}51%{opacity:1}75%,100%{opacity:0}}@keyframes av_v4{0%,75%{opacity:0}76%,100%{opacity:1}}@keyframes av_nod{0%,100%{transform:none}50%{transform:rotate(2deg) translateY(1px)}}.av[data-act="raise"] .av-arml,.av[data-act="celebrate"] .av-arml{opacity:0}.av[data-act="raise"] .av-armu,.av[data-act="celebrate"] .av-armu{opacity:1;animation:av_wave .45s ease-in-out infinite alternate}.av[data-act="raise"] .m-happy,.av[data-act="celebrate"] .m-happy{opacity:1}.av[data-act="raise"] .av-bl,.av[data-act="raise"] .av-br{transform:translateY(-3px)}.av[data-act="celebrate"] .av-move{animation:av_hop 2.2s var(--it) ease-in-out both}.av[data-act="celebrate"] .av-eo{opacity:0}.av[data-act="celebrate"] .av-eh{opacity:1}.av[data-act="celebrate"] .av-sparks{opacity:1}.av[data-act="celebrate"] .av-sparks path{animation:av_spark 1.1s ease-out infinite}.av[data-act="celebrate"] .av-sparks path:nth-child(2n){animation-delay:.3s}@keyframes av_wave{from{transform:rotate(-6deg)}to{transform:rotate(8deg)}}@keyframes av_hop{0%,50%,100%{transform:none}14%,64%{transform:translateY(-24px)}28%,78%{transform:scale(1.03,.96)}}@keyframes av_spark{0%{opacity:0;transform:scale(.4)}25%{opacity:1}100%{opacity:0;transform:translate(var(--dx),var(--dy)) scale(1) rotate(90deg)}}.av[data-act="surprise"] .av-move{animation:av_lean 2s var(--it) ease-in-out both}.av[data-act="surprise"] .m-surprised{opacity:1}.av[data-act="surprise"] .av-eo{transform:scale(1.1)}.av[data-act="surprise"] .av-bl,.av[data-act="surprise"] .av-br{transform:translateY(-6px)}.av[data-act="surprise"] .av-excl{animation:av_excl 2s var(--it) ease-out both}@keyframes av_lean{0%,100%{transform:none}12%,80%{transform:rotate(-3deg) translateX(-4px)}}@keyframes av_excl{0%{opacity:0;transform:scale(0)}12%{opacity:1;transform:scale(1.2)}20%,80%{opacity:1;transform:rotate(-6deg)}50%{transform:rotate(6deg)}92%,100%{opacity:0;transform:none}}.av[data-act="defeat"] .av-hd{animation:av_down 3.2s var(--it) ease-in-out both}.av[data-act="defeat"] .av-move{animation:av_slump 3.2s var(--it) ease-in-out both}.av[data-act="defeat"] .m-sad{animation:av_m1 3.2s var(--it) both}.av[data-act="defeat"] .m-determined{animation:av_m2 3.2s var(--it) both}.av[data-act="defeat"] .av-bl{animation:av_bl 3.2s var(--it) both}.av[data-act="defeat"] .av-br{animation:av_br 3.2s var(--it) both}.av[data-act="defeat"] .av-glint{animation:av_glint 3.2s var(--it) ease-out both}@keyframes av_down{0%,100%{transform:none}15%,55%{transform:translateY(8px) rotate(-6deg)}70%{transform:none}}@keyframes av_slump{0%,100%{transform:none}15%,55%{transform:scale(.98,.96)}70%{transform:none}}@keyframes av_m1{0%,58%{opacity:1}60%,100%{opacity:0}}@keyframes av_m2{0%,58%{opacity:0}60%,100%{opacity:1}}@keyframes av_bl{0%,58%{transform:translateY(-1px) rotate(-13deg)}62%,100%{transform:translateY(2px) rotate(13deg)}}@keyframes av_br{0%,58%{transform:translateY(-1px) rotate(13deg)}62%,100%{transform:translateY(2px) rotate(-13deg)}}@keyframes av_glint{0%,64%{opacity:0;transform:scale(0)}74%{opacity:1;transform:scale(1.2) rotate(45deg)}90%,100%{opacity:0;transform:scale(.6) rotate(90deg)}}.av[data-act="power"] .av-pw{animation:av_pw 2.4s var(--it) ease-in-out both}.av[data-act="power"] .m-determined{opacity:1}.av[data-act="power"] .av-bl{transform:translateY(2px) rotate(13deg)}.av[data-act="power"] .av-br{transform:translateY(2px) rotate(-13deg)}.av[data-act="power"] .av-hairb{transform:scaleY(1.05)}.av[data-act="power"] .av-gem{opacity:1}.av[data-act="power"] .av-motes{opacity:1}.av[data-act="power"] .av-motes circle{animation:av_mote 1.6s ease-in infinite}.av[data-act="power"] .av-motes circle:nth-child(2n){animation-delay:.5s}.av[data-act="power"] .av-motes circle:nth-child(3n){animation-delay:1s}@keyframes av_pw{0%{opacity:0}15%,85%{opacity:1}100%{opacity:0}}@keyframes av_mote{0%{opacity:0;transform:none}20%{opacity:1}100%{opacity:0;transform:translateY(-90px)}}.av[data-act="special"] .m-happy{opacity:1}.av[data-act="special"][data-base="tomas"] .av-move{animation:av_roll 2.4s var(--it) ease-in-out both}.av[data-act="special"] .av-rim{animation-duration:.4s}.av[data-act="special"][data-base="nuri"] .av-arml{opacity:0}.av[data-act="special"] .av-sign{opacity:1}.av[data-act="special"] .av-sh{animation:av_sign .6s ease-in-out infinite alternate}@keyframes av_roll{0%,100%{transform:none}25%{transform:translateX(-18px)}50%{transform:none}75%{transform:translateX(18px)}}@keyframes av_sign{from{transform:rotate(-8deg)}to{transform:translate(4px,-6px) rotate(10deg)}}@media (prefers-reduced-motion:reduce){.av *{animation:none!important}}</style><defs><linearGradient id="av-rimG" x1="0" y1="0" x2="1" y2=".2"><stop offset=".6" stop-color="#000"/><stop offset=".92" stop-color="#fff"/></linearGradient><mask id="av-rim" maskContentUnits="objectBoundingBox"><rect width="1" height="1" fill="url(#av-rimG)"/></mask><radialGradient id="av-iris" cx=".5" cy=".8" r=".75"><stop offset="0" stop-color="#B27A4E"/><stop offset=".5" stop-color="#6B4426"/><stop offset="1" stop-color="#2A140A"/></radialGradient><linearGradient id="av-fadeUp" x1="0" y1="1" x2="0" y2="0"><stop offset="0" stop-color="#fff"/><stop offset=".5" stop-color="#fff" stop-opacity=".75"/><stop offset="1" stop-color="#fff" stop-opacity="0"/></linearGradient><mask id="av-fadeM" maskContentUnits="objectBoundingBox"><rect width="1" height="1" fill="url(#av-fadeUp)"/></mask><radialGradient id="av-rayF"><stop offset="0" stop-color="#fff"/><stop offset=".6" stop-color="#fff" stop-opacity=".5"/><stop offset="1" stop-color="#fff" stop-opacity="0"/></radialGradient><mask id="av-rayM" maskContentUnits="objectBoundingBox"><rect width="1" height="1" fill="url(#av-rayF)"/></mask><radialGradient id="av-goldG" cx=".5" cy=".55" r=".55"><stop offset="0" stop-color="#FFE58A" stop-opacity=".1"/><stop offset=".7" stop-color="#FFC83D" stop-opacity=".18"/><stop offset="1" stop-color="#FFC83D" stop-opacity=".42"/></radialGradient><linearGradient id="av-upG" x1="0" y1="0" x2="1" y2="0"><stop offset="0" stop-color="#FFF6D6" stop-opacity="0"/><stop offset=".5" stop-color="#FFFFFF" stop-opacity=".9"/><stop offset="1" stop-color="#FFF6D6" stop-opacity="0"/></linearGradient><radialGradient id="av-gem"><stop offset="0" stop-color="#9AF7EE" stop-opacity=".9"/><stop offset="1" stop-color="#9AF7EE" stop-opacity="0"/></radialGradient></defs><g class="av" data-base="tomas" data-expr="neutral" data-act="idle" style="--it:infinite"><ellipse cx="150" cy="482" rx="78" ry="8" fill="#14123B" opacity=".14"/><g class="av-move"><g class="av-chairback"><path d="M112 300 V376 M188 300 V376" stroke="#0E0C2B" stroke-width="9" stroke-linecap="round"/><path d="M112 300 V376 M188 300 V376" stroke="#5A6078" stroke-width="5" stroke-linecap="round"/><path d="M116 306 H184 V362 H116 Z" fill="#2B2670" stroke="#0E0C2B" stroke-width="2.4" stroke-linejoin="round" stroke-linecap="round"/><path d="M104 298 H116 M184 298 H196" stroke="#0E0C2B" stroke-width="8" stroke-linecap="round"/><path d="M104 298 H116 M184 298 H196" stroke="#2EE6D6" stroke-width="4" stroke-linecap="round"/></g><g><ellipse cx="94" cy="404" rx="15" ry="64" fill="#2B2670" stroke="#0E0C2B" stroke-width="3.5"/><ellipse class="av-rim" cx="94" cy="404" rx="11" ry="56" fill="none" stroke="#2EE6D6" stroke-width="4" stroke-dasharray="14 10"/><ellipse cx="94" cy="404" rx="4" ry="9" fill="#FFC83D" stroke="#0E0C2B" stroke-width="2"/><ellipse cx="206" cy="404" rx="15" ry="64" fill="#221E5E" stroke="#0E0C2B" stroke-width="3.5"/><ellipse class="av-rim" cx="206" cy="404" rx="11" ry="56" fill="none" stroke="#2EE6D6" stroke-width="4" stroke-dasharray="14 10"/><ellipse cx="206" cy="404" rx="4" ry="9" fill="#FFC83D" stroke="#0E0C2B" stroke-width="2"/></g><g class="av-aura"><ellipse class="av-glow" cx="150" cy="480" rx="80" ry="14" fill="#3DBE8B" fill-opacity=".28"/></g><g class="av-up"><rect x="86" y="-20" width="128" height="500" rx="64" fill="url(#av-upG)"/><ellipse cx="150" cy="480" rx="90" ry="16" fill="none" stroke="#FFF6D6" stroke-width="5"/></g><g class="av-pw" style="color:#2EE6D6"><g mask="url(#av-fadeM)"><path class="av-fl" d="M150 470 C70 470 40 400 44 320 C48 230 68 150 100 104 C116 82 132 70 150 66 C168 70 184 82 200 104 C232 150 252 230 256 320 C260 400 230 470 150 470 Z" fill="currentColor" fill-opacity=".22"/><path class="av-fl3" d="M150 470 C70 470 40 400 44 320 C48 230 68 150 100 104 C116 82 132 70 150 66 C168 70 184 82 200 104 C232 150 252 230 256 320 C260 400 230 470 150 470 Z" fill="none" stroke="currentColor" stroke-width="2.8" stroke-linecap="round" stroke-dasharray="46 22"/></g><g class="av-rip" fill="none" stroke="currentColor" stroke-width="3"><ellipse cx="150" cy="466" rx="70" ry="12"/><ellipse cx="150" cy="466" rx="70" ry="12"/></g><g class="av-streak" stroke="currentColor" stroke-width="3" stroke-linecap="round"><line x1="70" y1="430" x2="70" y2="404"/><line x1="96" y1="410" x2="96" y2="384"/><line x1="122" y1="440" x2="122" y2="414"/><line x1="178" y1="425" x2="178" y2="399"/><line x1="204" y1="412" x2="204" y2="386"/><line x1="230" y1="436" x2="230" y2="410"/><line x1="84" y1="380" x2="84" y2="354"/><line x1="216" y1="372" x2="216" y2="346"/></g></g><g class="av-breath"><g class="av-gear"><path class="av-cape" d="M112 204 C94 250 82 300 76 346 C110 360 190 360 224 346 C218 300 206 250 188 204 Z" fill="#3DBE8B" stroke="#0E0C2B" stroke-width="3.5" stroke-linejoin="round" stroke-linecap="round"/></g><g class="av-hairb"><g><g fill="#2A1C14" stroke="#0E0C2B" stroke-width="3"><circle cx="112" cy="122" r="16"/><circle cx="118" cy="96" r="18"/><circle cx="136" cy="78" r="19"/><circle cx="160" cy="74" r="20"/><circle cx="182" cy="86" r="18"/><circle cx="190" cy="110" r="16"/></g></g></g><clipPath id="av-t0"><path d="M114 206 C126 196 174 196 186 206 L193 320 C170 328 130 328 107 320 Z"/></clipPath><path d="M114 206 C126 196 174 196 186 206 L193 320 C170 328 130 328 107 320 Z" fill="#F1E4C3"/><g clip-path="url(#av-t0)"><path d="M168 200 C180 240 186 290 186 330 L200 330 L200 200 Z" fill="#D8C79B"/><path d="M104 200 L139 203 L141 330 L100 330 Z" fill="#2E6F9E" stroke="#0E0C2B" stroke-width="2.4" stroke-linejoin="round" stroke-linecap="round"/><path d="M196 200 L161 203 L159 330 L200 330 Z" fill="#22567C" stroke="#0E0C2B" stroke-width="2.4" stroke-linejoin="round" stroke-linecap="round"/><path d="M106 298 C130 306 170 306 194 298 L194 314 C170 322 130 322 106 314 Z" fill="#2EB8AC"/><path d="M106 298 C130 306 170 306 194 298 M106 314 C130 322 170 322 194 314" fill="none" stroke="#0E0C2B" stroke-width="2"/><path d="M114 206 C126 196 174 196 186 206 L193 320 C170 328 130 328 107 320 Z" fill="none" stroke="#2EE6D6" stroke-width="9" mask="url(#av-rim)"/></g><path d="M114 206 C126 196 174 196 186 206 L193 320 C170 328 130 328 107 320 Z" fill="none" stroke="#0E0C2B" stroke-width="3.5" stroke-linejoin="round" stroke-linecap="round"/><path d="M140 210 L150 240 L160 210" fill="none" stroke="#1F9C92" stroke-width="1.8" stroke-linecap="round"/><path d="M182 208 L118 302" stroke="#0E0C2B" stroke-width="8" stroke-linecap="round"/><path d="M182 208 L118 302" stroke="#9C7140" stroke-width="4.4" stroke-linecap="round"/><path d="M98 294 H140 V334 H98 Z" fill="#B98B5A" stroke="#0E0C2B" stroke-width="3.5" stroke-linejoin="round" stroke-linecap="round"/><path d="M98 294 H140 V310 L119 318 L98 310 Z" fill="#9C7140" stroke="#0E0C2B" stroke-width="2.4" stroke-linejoin="round" stroke-linecap="round"/><circle cx="119" cy="316" r="3.4" fill="#2EB8AC" stroke="#0E0C2B" stroke-width="1.4"/><path class="av-rune" d="M140 210 L136 312 M160 210 L164 312" stroke="#3DBE8B" stroke-width="8" stroke-opacity=".3" stroke-linecap="round"/><path d="M140 210 L136 312 M160 210 L164 312" stroke="#3DBE8B" stroke-width="3.4" stroke-linecap="round"/><g class="av-gear"></g><path d="M144 256 V246 Q150 234 156 246 V256 Z" fill="#FFC83D" stroke="#0E0C2B" stroke-width="2.4" stroke-linejoin="round" stroke-linecap="round"/><path d="M148 256 V249 Q150 245 152 249 V256Z" fill="#0E0C2B"/><path d="M140 172 h20 v28 c-6 6 -14 6 -20 0z" fill="#C99A74" stroke="#0E0C2B" stroke-width="2.4" stroke-linejoin="round" stroke-linecap="round"/><path d="M150 174 h10 v18 c-4 3 -7 4 -10 4z" fill="#A97C58"/><path d="M110 198 C124 220 176 220 190 198 C195 210 191 222 185 228 C166 241 134 241 115 228 C109 222 105 210 110 198 Z" fill="#2EB8AC" stroke="#0E0C2B" stroke-width="3.5" stroke-linejoin="round" stroke-linecap="round"/><path d="M118 222 C134 232 166 232 182 222" fill="none" stroke="#9AF7EE" stroke-width="4" stroke-linecap="round"/><g class="av-tail"><path d="M164 228 C176 230 188 236 194 244 L204 350 C196 356 184 356 176 352 L170 258 Z" fill="#1F9C92" stroke="#0E0C2B" stroke-width="3.5" stroke-linejoin="round" stroke-linecap="round"/><path d="M174 290 L200 296 M176 312 L202 318 M178 334 L203 340" stroke="#9AF7EE" stroke-width="3.6" stroke-linecap="round"/><path d="M178 354 l-2 10 M186 356 l0 10 M194 355 l2 10" stroke="#1F9C92" stroke-width="3" stroke-linecap="round"/></g><g class="av-arml"><path d="M116 210 C102 236 96 272 96 302 L118 304 C118 274 122 246 132 226 Z" fill="#F1E4C3" stroke="#0E0C2B" stroke-width="3.5" stroke-linejoin="round" stroke-linecap="round"/><path d="M94 296 L120 298 L119 309 L93 307 Z" fill="#D8C79B" stroke="#0E0C2B" stroke-width="2.4" stroke-linejoin="round" stroke-linecap="round"/><path d="M96 309 C92 319 96 329 105 330 C114 331 119 323 117 311 Z" fill="#C99A74" stroke="#0E0C2B" stroke-width="2.4" stroke-linejoin="round" stroke-linecap="round"/><path d="M116 313 C122 313 123 319 118 322 Z" fill="#C99A74" stroke="#0E0C2B" stroke-width="2.4" stroke-linejoin="round" stroke-linecap="round"/></g><g class="av-armu"><path d="M128 214 C118 188 110 150 106 116 L84 120 C88 160 96 198 112 224 Z" fill="#F1E4C3" stroke="#0E0C2B" stroke-width="3.5" stroke-linejoin="round" stroke-linecap="round"/><path d="M82 108 L108 104 L109 118 L83 122 Z" fill="#D8C79B" stroke="#0E0C2B" stroke-width="2.4" stroke-linejoin="round" stroke-linecap="round"/><g transform="translate(-22 -26)"><path d="M104 104 C100 104 99 108 100 120 L102 132 C104 140 112 146 120 145 C128 144 133 138 132 130 L132 104 C132 100 126 100 126 104 L125 118 L124 98 C124 93 118 93 118 98 L118 116 L116 96 C116 91 110 91 110 96 L110 117 L108 104 C108 100 104 100 104 104 Z" fill="#C99A74" stroke="#0E0C2B" stroke-width="2.4" stroke-linejoin="round" stroke-linecap="round"/><path d="M131 128 C138 120 145 122 142 130 L134 140 Z" fill="#C99A74" stroke="#0E0C2B" stroke-width="2.4" stroke-linejoin="round" stroke-linecap="round"/></g></g><g><path d="M184 210 C198 236 204 272 204 302 L182 304 C182 274 178 246 168 226 Z" fill="#E3D4AE" stroke="#0E0C2B" stroke-width="3.5" stroke-linejoin="round" stroke-linecap="round"/><path d="M206 296 L180 298 L181 309 L207 307 Z" fill="#C9B88A" stroke="#0E0C2B" stroke-width="2.4" stroke-linejoin="round" stroke-linecap="round"/><path d="M204 309 C208 319 204 329 195 330 C186 331 181 323 183 311 Z" fill="#C99A74" stroke="#0E0C2B" stroke-width="2.4" stroke-linejoin="round" stroke-linecap="round"/><path d="M184 313 C178 313 177 319 182 322 Z" fill="#A97C58" stroke="#0E0C2B" stroke-width="2.4" stroke-linejoin="round" stroke-linecap="round"/></g><g class="av-gear"></g><g><path d="M104 362 H196 V378 H104 Z" fill="#5A6078" stroke="#0E0C2B" stroke-width="2.4" stroke-linejoin="round" stroke-linecap="round"/><path d="M120 356 H148 V392 C148 398 120 398 120 392 Z" fill="#1E1B4B" stroke="#0E0C2B" stroke-width="3.5" stroke-linejoin="round" stroke-linecap="round"/><path d="M152 356 H180 V392 C180 398 152 398 152 392 Z" fill="#16133A" stroke="#0E0C2B" stroke-width="3.5" stroke-linejoin="round" stroke-linecap="round"/><path d="M122 390 H146 L145 452 H123 Z" fill="#1E1B4B" stroke="#0E0C2B" stroke-width="3.5" stroke-linejoin="round" stroke-linecap="round"/><path d="M154 390 H178 L177 452 H155 Z" fill="#16133A" stroke="#0E0C2B" stroke-width="3.5" stroke-linejoin="round" stroke-linecap="round"/><path d="M118 448 H148 V466 H114 C112 460 114 452 118 448 Z" fill="#2D2A5C" stroke="#0E0C2B" stroke-width="3.5" stroke-linejoin="round" stroke-linecap="round"/><path d="M152 448 H182 C186 452 188 460 186 466 H152 Z" fill="#24224D" stroke="#0E0C2B" stroke-width="3.5" stroke-linejoin="round" stroke-linecap="round"/><path d="M112 470 H188" stroke="#0E0C2B" stroke-width="7" stroke-linecap="round"/><path d="M112 470 H188" stroke="#9AA0B4" stroke-width="3.5" stroke-linecap="round"/><path d="M120 378 L114 470 M180 378 L186 470" stroke="#0E0C2B" stroke-width="6" stroke-linecap="round"/><path d="M120 378 L114 470 M180 378 L186 470" stroke="#5A6078" stroke-width="3" stroke-linecap="round"/><circle cx="112" cy="476" r="6" fill="#14123B" stroke="#0E0C2B" stroke-width="2.4" stroke-linejoin="round" stroke-linecap="round"/><circle cx="188" cy="476" r="6" fill="#14123B" stroke="#0E0C2B" stroke-width="2.4" stroke-linejoin="round" stroke-linecap="round"/></g><g class="av-head"><g class="av-hd"><ellipse cx="112" cy="142" rx="7" ry="9" fill="#C99A74" stroke="#0E0C2B" stroke-width="2.4" stroke-linejoin="round" stroke-linecap="round"/><ellipse cx="188" cy="142" rx="7" ry="9" fill="#A97C58" stroke="#0E0C2B" stroke-width="2.4" stroke-linejoin="round" stroke-linecap="round"/><clipPath id="av-f1"><path d="M112 122 C112 88 188 88 188 122 C189 152 174 176 150 181 C126 176 111 152 112 122 Z"/></clipPath><path d="M112 122 C112 88 188 88 188 122 C189 152 174 176 150 181 C126 176 111 152 112 122 Z" fill="#C99A74"/><g clip-path="url(#av-f1)"><path d="M110 106 C130 124 170 124 190 106 L190 128 C170 118 130 118 110 128 Z" fill="#A97C58"/><path d="M174 96 C188 124 186 160 156 184 L200 184 L200 96 Z" fill="#A97C58"/></g><path d="M112 122 C112 88 188 88 188 122 C189 152 174 176 150 181 C126 176 111 152 112 122 Z" fill="none" stroke="#0E0C2B" stroke-width="3.5" stroke-linejoin="round" stroke-linecap="round"/><path d="M150 150 q-2.2 4 1.2 4.6" fill="none" stroke="#7A5236" stroke-width="1.8" stroke-linecap="round"/><path class="av-m m-neutral" d="M142 161 Q150 167 158 161" fill="none" stroke="#6B2230" stroke-width="2.4" stroke-linecap="round"/><g class="av-m m-happy"><path d="M140 158 C142 172 158 172 160 158 Q150 161 140 158 Z" fill="#6B1E2E" stroke="#0E0C2B" stroke-width="2.2" stroke-linejoin="round"/><path d="M144 166 C147 169 153 169 156 166 C153 163 147 163 144 166 Z" fill="#FF8A8A"/><path d="M142 159 H158 C156 162 144 162 142 159 Z" fill="#fff"/></g><ellipse class="av-m m-surprised" cx="150" cy="163" rx="4.5" ry="5.5" fill="#6B1E2E" stroke="#0E0C2B" stroke-width="2.2"/><path class="av-m m-sad" d="M143 166 Q150 160 157 166" fill="none" stroke="#6B2230" stroke-width="2.4" stroke-linecap="round"/><path class="av-m m-determined" d="M142 163 Q152 166 159 159" fill="none" stroke="#6B2230" stroke-width="2.6" stroke-linecap="round"/><g class="av-v v-a"><path d="M141 158 C142 173 158 173 159 158 Q150 161 141 158 Z" fill="#6B1E2E" stroke="#0E0C2B" stroke-width="2.2" stroke-linejoin="round"/><path d="M144 167 C147 170 153 170 156 167 C153 164 147 164 144 167 Z" fill="#FF8A8A"/></g><g class="av-v v-e"><path d="M140 160 C144 168 156 168 160 160 Q150 162 140 160 Z" fill="#6B1E2E" stroke="#0E0C2B" stroke-width="2.2" stroke-linejoin="round"/><path d="M142 160.5 H158 C156 162.5 144 162.5 142 160.5 Z" fill="#fff"/></g><ellipse class="av-v v-o" cx="150" cy="163" rx="5" ry="6.5" fill="#6B1E2E" stroke="#0E0C2B" stroke-width="2.2"/><path class="av-v v-m" d="M143 162 Q150 164 157 162" fill="none" stroke="#6B2230" stroke-width="2.4" stroke-linecap="round"/><g class="av-eyes"><g class="av-eo"><clipPath id="av-e2"><ellipse cx="132" cy="139.5" rx="11" ry="11"/></clipPath><ellipse cx="132" cy="139.5" rx="11" ry="11" fill="#FFFFFF"/><g clip-path="url(#av-e2)"><ellipse cx="133" cy="140.5" rx="8.4" ry="10" fill="url(#av-iris)"/><path d="M123 134 C125 126 141 126 143 134 C139 131 127 131 123 134 Z" fill="#000" opacity=".35"/><ellipse cx="133" cy="141" rx="4.4" ry="6.6" fill="#140A04"/><circle cx="129.5" cy="135.5" r="3.1" fill="#fff"/><circle cx="137" cy="145.5" r="1.5" fill="#fff"/></g><path d="M120 133 C124 127 139 126 145 131" fill="none" stroke="#0E0C2B" stroke-width="3.2" stroke-linecap="round"/><clipPath id="av-e3"><ellipse cx="168" cy="139.5" rx="11" ry="11"/></clipPath><ellipse cx="168" cy="139.5" rx="11" ry="11" fill="#FFFFFF"/><g clip-path="url(#av-e3)"><ellipse cx="167" cy="140.5" rx="8.4" ry="10" fill="url(#av-iris)"/><path d="M159 134 C161 126 177 126 179 134 C175 131 163 131 159 134 Z" fill="#000" opacity=".35"/><ellipse cx="167" cy="141" rx="4.4" ry="6.6" fill="#140A04"/><circle cx="163.5" cy="135.5" r="3.1" fill="#fff"/><circle cx="171" cy="145.5" r="1.5" fill="#fff"/></g><path d="M180 133 C176 127 161 126 155 131" fill="none" stroke="#0E0C2B" stroke-width="3.2" stroke-linecap="round"/></g><g class="av-eh" fill="none" stroke="#0E0C2B" stroke-width="3.6" stroke-linecap="round"><path d="M121 142 Q132 129 143 142"/><path d="M157 142 Q168 129 179 142"/></g></g><g fill="#2A1C14" stroke="#0E0C2B" stroke-width="3"><circle cx="116" cy="114" r="10"/><circle cx="126" cy="100" r="13"/><circle cx="143" cy="92" r="14"/><circle cx="160" cy="92" r="14"/><circle cx="176" cy="100" r="13"/><circle cx="185" cy="114" r="10"/></g><path d="M122 94 C128 86 138 82 146 84 M154 82 C164 82 172 86 178 94" fill="none" stroke="#5A4030" stroke-width="3" stroke-linecap="round"/><path d="M190 106 C194 112 194 118 192 122" fill="none" stroke="#2EE6D6" stroke-width="2.6" stroke-linecap="round"/><path class="av-bl" d="M120 120 Q131 116 143 118" fill="none" stroke="#2A1C14" stroke-width="4.6" stroke-linecap="round"/><path class="av-br" d="M180 120 Q169 116 157 118" fill="none" stroke="#2A1C14" stroke-width="4.6" stroke-linecap="round"/></g></g></g><g class="av-rkf av-gear"><g fill="#3DBE8B" stroke="#0E0C2B" stroke-width="1.4"><path class="av-tw" d="M78 196 l2.5 6 6 2.5 -6 2.5 -2.5 6 -2.5 -6 -6 -2.5 6 -2.5z"/><path class="av-tw" d="M224 176 l2.5 6 6 2.5 -6 2.5 -2.5 6 -2.5 -6 -6 -2.5 6 -2.5z"/><path class="av-tw" d="M66 336 l2 5 5 2 -5 2 -2 5 -2 -5 -5 -2 5 -2z"/><path class="av-tw" d="M234 318 l2 5 5 2 -5 2 -2 5 -2 -5 -5 -2 5 -2z"/></g><g fill="#5CD69E" stroke="#0E0C2B" stroke-width="1.2"><path class="av-leaf" style="animation-delay:-0s" d="M70 120 c6 -8 16 -8 18 0 c-6 8 -16 8 -18 0z"/><path class="av-leaf" style="animation-delay:-1.1s" d="M230 110 c6 -8 16 -8 18 0 c-6 8 -16 8 -18 0z"/><path class="av-leaf" style="animation-delay:-2.2s" d="M110 80 c6 -8 16 -8 18 0 c-6 8 -16 8 -18 0z"/><path class="av-leaf" style="animation-delay:-3.3000000000000003s" d="M196 150 c6 -8 16 -8 18 0 c-6 8 -16 8 -18 0z"/></g></g><g class="av-fx"><g class="av-excl"><path d="M214 40 C214 34 230 34 230 40 L226 80 C226 84 218 84 218 80 Z" fill="#FFC83D" stroke="#14123B" stroke-width="3" stroke-linejoin="round"/><circle cx="222" cy="94" r="6.5" fill="#FFC83D" stroke="#14123B" stroke-width="3"/></g><g class="av-glint"><path d="M186 120 l3 8 8 3 -8 3 -3 8 -3 -8 -8 -3 8 -3z" fill="#FFFFFF" stroke="#FFC83D" stroke-width="1.6"/></g><g class="av-sparks" fill="#FFC83D" stroke="#14123B" stroke-width="1.4"><path style="--dx:-90px;--dy:-60px" d="M150 190 l3 7 7 3 -7 3 -3 7 -3 -7 -7 -3 7 -3z"/><path style="--dx:90px;--dy:-70px" d="M150 190 l3 7 7 3 -7 3 -3 7 -3 -7 -7 -3 7 -3z"/><path style="--dx:-110px;--dy:10px" d="M150 190 l3 7 7 3 -7 3 -3 7 -3 -7 -7 -3 7 -3z"/><path style="--dx:110px;--dy:0px" d="M150 190 l3 7 7 3 -7 3 -3 7 -3 -7 -7 -3 7 -3z"/><path style="--dx:-60px;--dy:-110px" d="M150 190 l3 7 7 3 -7 3 -3 7 -3 -7 -7 -3 7 -3z"/><path style="--dx:60px;--dy:-120px" d="M150 190 l3 7 7 3 -7 3 -3 7 -3 -7 -7 -3 7 -3z"/></g><g class="av-motes" fill="#7FF3E9"><circle cx="80" cy="440" r="3"/><circle cx="220" cy="420" r="2.6"/><circle cx="100" cy="330" r="2.2"/><circle cx="206" cy="300" r="3"/><circle cx="70" cy="250" r="2"/><circle cx="232" cy="200" r="2.4"/></g></g></g></g></svg>