<?xml version="1.0" encoding="UTF-8"?>
<svg data-act="abriendo" xmlns="http://www.w3.org/2000/svg" viewBox="0 0 256 256" width="256" height="256" class="ob" id="obj_cofre_raro" stroke-linejoin="round" stroke-linecap="round" data-state="reposo" data-marco="si" data-id="obj_cofre_raro" data-nombre="Cofre raro" data-categoria="cofre" data-rareza="raro" data-precio="—" data-desbloqueo="Retos de mazmorra" role="img" aria-label="Cofre raro"><title>Cofre raro</title><style>.ob .o_art{transform-box:view-box;transform-origin:128px 160px}.ob[data-state="reposo"] .o_art{animation:o_bob 4s ease-in-out infinite}.ob[data-state="destacado"] .o_art{animation:o_hop 1s ease-in-out infinite}@keyframes o_bob{0%,100%{transform:translateY(0)}50%{transform:translateY(-5px)}}@keyframes o_hop{0%,100%{transform:translateY(0) scale(1)}30%{transform:translateY(-16px) scale(1.06)}55%{transform:translateY(0) scale(1.08,.93)}75%{transform:translateY(-4px) scale(1)}}.ob .o_hl{opacity:0}.ob[data-state="destacado"] .o_hl{opacity:1;animation:o_br 1.6s ease-in-out infinite}.ob .o_br{animation:o_br 4s ease-in-out infinite}@keyframes o_br{0%,100%{opacity:.45}50%{opacity:1}}.ob[data-state="destacado"] .o_br{animation-duration:1.6s}.ob .o_lock{display:none}.ob[data-state="bloqueado"] .o_lock{display:inline}.ob[data-state="bloqueado"] .o_fx,.ob[data-state="bloqueado"] .o_hl,.ob[data-state="bloqueado"] .o_extra{display:none}.ob[data-state="bloqueado"] .o_ring{stroke:#77738F}.ob[data-state="bloqueado"] .o_art{filter:url(#g190d_sil)}.ob[data-state="bloqueado"] *{animation:none!important}.ob[data-marco="no"] .o_frame,.ob[data-marco="no"] .o_fx{display:none}@media (prefers-reduced-motion:reduce){.ob *{animation:none!important}}@keyframes o_spin{to{transform:rotate(360deg)}}.ob .c_lid{transform-box:view-box;transform-origin:70px 128px}.ob .c_burst,.ob .c_item,.ob .c_rays{transform-box:view-box;transform-origin:128px 120px}.ob .c_burst,.ob .c_item,.ob .c_open{opacity:0}.ob[data-act="abriendo"] .o_art{animation:c_sh 2s infinite}.ob[data-act="abriendo"] .c_lid{animation:c_lid 2s cubic-bezier(.3,1.4,.5,1) infinite}.ob[data-act="abriendo"] .c_burst{animation:c_bu 2s ease-out infinite}.ob[data-act="abriendo"] .c_item{animation:c_it 2s ease-out infinite}.ob[data-act="abriendo"] .c_open{animation:c_op 2s infinite}.ob[data-act="abierto"] .c_lid{transform:translate(-6px,-34px) rotate(-16deg)}.ob[data-act="abierto"] .c_burst,.ob[data-act="abierto"] .c_open,.ob[data-act="abierto"] .c_item{opacity:1}.ob[data-act="abierto"] .c_rays{animation:o_spin 12s linear infinite}@keyframes c_sh{0%,35%,100%{transform:none}5%,15%,25%{transform:translateX(-5px) rotate(-2deg)}10%,20%,30%{transform:translateX(5px) rotate(2deg)}}@keyframes c_lid{0%,38%{transform:none}55%,100%{transform:translate(-6px,-34px) rotate(-16deg)}}@keyframes c_bu{0%,42%{opacity:0;transform:scale(.4)}60%{opacity:1;transform:scale(1.1)}100%{opacity:1;transform:none}}@keyframes c_op{0%,42%{opacity:0}55%,100%{opacity:1}}@keyframes c_it{0%,55%{opacity:0;transform:translateY(30px) scale(.4)}78%{opacity:1;transform:translateY(-8px) scale(1.1)}100%{opacity:1;transform:none}}</style><defs><radialGradient id="g190d_tile" cx=".35" cy=".3" r=".8"><stop offset="0" stop-color="#3E3690"/><stop offset="1" stop-color="#171447"/></radialGradient><radialGradient id="g190d_glow"><stop offset=".6" stop-color="#2EE6D6" stop-opacity=".55"/><stop offset="1" stop-color="#2EE6D6" stop-opacity="0"/></radialGradient><filter id="g190d_sil" x="-10%" y="-10%" width="120%" height="120%"><feColorMatrix type="matrix" values="0 0 0 0 .52  0 0 0 0 .5  0 0 0 0 .62  0 0 0 1 0"/></filter><radialGradient id="g190d_burst"><stop offset="0" stop-color="#FFF6D6" stop-opacity=".95"/><stop offset="1" stop-color="#FFC83D" stop-opacity="0"/></radialGradient></defs><g class="o_fx"><circle cx="128" cy="128" r="118" fill="url(#g190d_glow)" class="o_br"/></g><g class="o_frame"><circle cx="128" cy="128" r="104" fill="none" stroke="#2EE6D6" stroke-width="10" class="o_hl" opacity="0"/><circle cx="128" cy="128" r="101" fill="#0E0C2B"/><circle cx="128" cy="128" r="95" fill="url(#g190d_tile)" stroke="#2EE6D6" stroke-width="8" class="o_ring"/><circle cx="128" cy="128" r="86" fill="none" stroke="#FFFFFF" stroke-opacity=".12" stroke-width="2"/><path d="M118 228V222A10 10 0 0 1 138 222V228" fill="none" stroke="#0E0C2B" stroke-width="3" opacity=".9"/></g><g class="o_art"><g class="c_burst"><g class="c_rays" fill="#FFF3C4" opacity=".8"><path d="M128 120L32.5 130L32.5 110Z"/><path d="M128 120L40.3 81L50.3 63.6Z"/><path d="M128 120L71.6 42.3L89 32.3Z"/><path d="M128 120L118 24.5L138 24.5Z"/><path d="M128 120L167 32.3L184.4 42.3Z"/><path d="M128 120L205.7 63.6L215.7 81Z"/><path d="M128 120L223.5 110L223.5 130Z"/></g><circle cx="128" cy="120" r="70" fill="url(#g190d_burst)"/></g><path d="M66 128H190V190C190 196 186 200 180 200H76C70 200 66 196 66 190Z" fill="#2EC7B9" stroke="#0E0C2B" stroke-width="3.5"/><path d="M190 128V190C190 196 186 200 180 200H150V128Z" fill="#14877D" opacity="0.55"/><path class="c_open" d="M70 130H186L178 140H78Z" fill="#FFF3C4"/><g class="c_item"><path d="M128 70L150 92L128 114L106 92Z" fill="#FFC83D" stroke="#0E0C2B" stroke-width="3.5"/><path d="M128 83Q130.7 89.3 137 92Q130.7 94.7 128 101Q125.3 94.7 119 92Q125.3 89.3 128 83Z" fill="#FFFFFF"/><path d="M160 58Q162.4 63.6 168 66Q162.4 68.4 160 74Q157.6 68.4 152 66Q157.6 63.6 160 58Z" fill="#FFF6D6"/></g><path d="M66 152H190" fill="none" stroke="#0E0C2B" stroke-width="2.4" opacity="0.6"/><rect x="86" y="128" width="12" height="72" fill="#2EE6D6" stroke="#0E0C2B" stroke-width="2.4"/><rect x="158" y="128" width="12" height="72" fill="#2EE6D6" stroke="#0E0C2B" stroke-width="2.4"/><g class="c_lid"><path d="M62 130V112C62 90 90 78 128 78C166 78 194 90 194 112V130Z" fill="#2EC7B9" stroke="#0E0C2B" stroke-width="3.5"/><path d="M194 112V130H150V80C176 84 194 96 194 112Z" fill="#14877D" opacity="0.55"/><path d="M86 130V86M170 130V86" stroke="#2EE6D6" stroke-width="12"/><path d="M74 104C80 92 96 86 112 84" fill="none" stroke="#E9FFFD" stroke-width="5" opacity="0.8"/></g><path d="M114 126H142V156H114Z" fill="#FFC83D" stroke="#0E0C2B" stroke-width="2.4"/><circle cx="128" cy="138" r="5" fill="#0E0C2B"/><path d="M126 140h4v8h-4z" fill="#0E0C2B"/><path d="M190 132V192" fill="none" stroke="#2EE6D6" stroke-width="3.5"/></g><g class="o_fx"></g><g class="o_lock"><path d="M164 168V156A16 16 0 0 1 196 156V168" fill="none" stroke="#0E0C2B" stroke-width="13" stroke-linecap="round"/><path d="M164 168V156A16 16 0 0 1 196 156V168" fill="none" stroke="#E7E4F7" stroke-width="6" stroke-linecap="round"/><rect x="152" y="166" width="56" height="44" rx="10" fill="#E7E4F7" stroke="#0E0C2B" stroke-width="3.5"/><circle cx="180" cy="184" r="6" fill="#5E5A86"/><path d="M180 186v12" stroke="#5E5A86" stroke-width="5" stroke-linecap="round"/></g></svg>