<?xml version="1.0" encoding="UTF-8"?>
<svg xmlns="http://www.w3.org/2000/svg" viewBox="0 0 256 256" width="256" height="256" class="ob" id="obj_ui_racha" stroke-linejoin="round" stroke-linecap="round" data-state="reposo" data-marco="no" data-id="obj_ui_racha_sin_numero" data-nombre="Marcador de racha (sin número)" data-categoria="interfaz" data-rareza="comun" data-precio="—" data-desbloqueo="Días seguidos jugando" role="img" aria-label="Llama de racha"><title>Marcador de racha</title><style>.ob .o_art{transform-box:view-box;transform-origin:128px 160px}.ob[data-state="reposo"] .o_art{animation:o_bob 4s ease-in-out infinite}.ob[data-state="destacado"] .o_art{animation:o_hop 1s ease-in-out infinite}@keyframes o_bob{0%,100%{transform:translateY(0)}50%{transform:translateY(-5px)}}@keyframes o_hop{0%,100%{transform:translateY(0) scale(1)}30%{transform:translateY(-16px) scale(1.06)}55%{transform:translateY(0) scale(1.08,.93)}75%{transform:translateY(-4px) scale(1)}}.ob .o_hl{opacity:0}.ob[data-state="destacado"] .o_hl{opacity:1;animation:o_br 1.6s ease-in-out infinite}.ob .o_br{animation:o_br 4s ease-in-out infinite}@keyframes o_br{0%,100%{opacity:.45}50%{opacity:1}}.ob[data-state="destacado"] .o_br{animation-duration:1.6s}.ob .o_lock{display:none}.ob[data-state="bloqueado"] .o_lock{display:inline}.ob[data-state="bloqueado"] .o_fx,.ob[data-state="bloqueado"] .o_hl,.ob[data-state="bloqueado"] .o_extra{display:none}.ob[data-state="bloqueado"] .o_ring{stroke:#77738F}.ob[data-state="bloqueado"] .o_art{filter:url(#g579c_sil)}.ob[data-state="bloqueado"] *{animation:none!important}.ob[data-marco="no"] .o_frame,.ob[data-marco="no"] .o_fx{display:none}@media (prefers-reduced-motion:reduce){.ob *{animation:none!important}}.ob .u_fl{transform-box:view-box;transform-origin:128px 200px;animation:u_fl 1.6s ease-in-out infinite}@keyframes u_fl{0%,100%{transform:scale(1,1)}50%{transform:scale(.95,1.06)}}</style><defs><radialGradient id="g579c_tile" cx=".35" cy=".3" r=".8"><stop offset="0" stop-color="#3E3690"/><stop offset="1" stop-color="#171447"/></radialGradient><radialGradient id="g579c_glow"><stop offset=".6" stop-color="#9AA0B4" stop-opacity=".55"/><stop offset="1" stop-color="#9AA0B4" stop-opacity="0"/></radialGradient><filter id="g579c_sil" x="-10%" y="-10%" width="120%" height="120%"><feColorMatrix type="matrix" values="0 0 0 0 .52  0 0 0 0 .5  0 0 0 0 .62  0 0 0 1 0"/></filter></defs><g class="o_fx"></g><g class="o_frame"><circle cx="128" cy="128" r="104" fill="none" stroke="#9AA0B4" stroke-width="10" class="o_hl" opacity="0"/><circle cx="128" cy="128" r="101" fill="#0E0C2B"/><circle cx="128" cy="128" r="95" fill="url(#g579c_tile)" stroke="#9AA0B4" stroke-width="8" class="o_ring"/><circle cx="128" cy="128" r="86" fill="none" stroke="#FFFFFF" stroke-opacity=".12" stroke-width="2"/><path d="M118 228V222A10 10 0 0 1 138 222V228" fill="none" stroke="#0E0C2B" stroke-width="3" opacity=".9"/></g><g class="o_art"><g class="u_fl"><path d="M128 40C150 76 196 92 190 146C186 184 160 204 128 204C96 204 70 184 66 146C62 110 92 96 98 66C112 82 112 96 118 104C126 82 128 62 128 40Z" fill="#FF6B6B" stroke="#0E0C2B" stroke-width="3.5"/><path d="M128 92C142 114 166 124 162 156C158 180 144 192 128 192C112 192 98 180 96 160C94 138 110 128 114 110C120 120 122 126 126 130C130 116 130 104 128 92Z" fill="#FFC83D"/><path d="M128 140C136 150 146 156 144 172C142 182 136 186 128 186C120 186 112 180 112 170C112 160 120 152 128 140Z" fill="#FFF6D6"/></g></g><g class="o_fx"></g><g class="o_lock"><path d="M164 168V156A16 16 0 0 1 196 156V168" fill="none" stroke="#0E0C2B" stroke-width="13" stroke-linecap="round"/><path d="M164 168V156A16 16 0 0 1 196 156V168" fill="none" stroke="#E7E4F7" stroke-width="6" stroke-linecap="round"/><rect x="152" y="166" width="56" height="44" rx="10" fill="#E7E4F7" stroke="#0E0C2B" stroke-width="3.5"/><circle cx="180" cy="184" r="6" fill="#5E5A86"/><path d="M180 186v12" stroke="#5E5A86" stroke-width="5" stroke-linecap="round"/></g></svg>