<?xml version="1.0" encoding="UTF-8"?>
<svg xmlns="http://www.w3.org/2000/svg" viewBox="0 0 256 256" width="256" height="256" class="ob" id="obj_marco_legendario" stroke-linejoin="round" stroke-linecap="round" data-state="bloqueado" data-marco="no" data-id="obj_marco_legendario" data-nombre="Marco solar" data-categoria="marco" data-rareza="legendario" data-precio="No se compra" data-desbloqueo="Rango o tienda" role="img" aria-label="Marco solar"><title>Marco solar</title><style>.ob .o_art{transform-box:view-box;transform-origin:128px 160px}.ob[data-state="reposo"] .o_art{animation:o_bob 4s ease-in-out infinite}.ob[data-state="destacado"] .o_art{animation:o_hop 1s ease-in-out infinite}@keyframes o_bob{0%,100%{transform:translateY(0)}50%{transform:translateY(-5px)}}@keyframes o_hop{0%,100%{transform:translateY(0) scale(1)}30%{transform:translateY(-16px) scale(1.06)}55%{transform:translateY(0) scale(1.08,.93)}75%{transform:translateY(-4px) scale(1)}}.ob .o_hl{opacity:0}.ob[data-state="destacado"] .o_hl{opacity:1;animation:o_br 1.6s ease-in-out infinite}.ob .o_br{animation:o_br 4s ease-in-out infinite}@keyframes o_br{0%,100%{opacity:.45}50%{opacity:1}}.ob[data-state="destacado"] .o_br{animation-duration:1.6s}.ob .o_lock{display:none}.ob[data-state="bloqueado"] .o_lock{display:inline}.ob[data-state="bloqueado"] .o_fx,.ob[data-state="bloqueado"] .o_hl,.ob[data-state="bloqueado"] .o_extra{display:none}.ob[data-state="bloqueado"] .o_ring{stroke:#77738F}.ob[data-state="bloqueado"] .o_art{filter:url(#g6cf8_sil)}.ob[data-state="bloqueado"] *{animation:none!important}.ob[data-marco="no"] .o_frame,.ob[data-marco="no"] .o_fx{display:none}@media (prefers-reduced-motion:reduce){.ob *{animation:none!important}}.ob .o_tw{transform-box:fill-box;transform-origin:center;animation:o_tw 2.6s ease-in-out infinite}@keyframes o_tw{0%,100%{opacity:.25;transform:scale(.7)}50%{opacity:1;transform:scale(1)}}@keyframes o_spin{to{transform:rotate(360deg)}}.ob .o_rays{transform-box:view-box;transform-origin:128px 128px;animation:o_spin 30s linear infinite}.ob .f_glow{animation:o_br 4s ease-in-out infinite}</style><defs><radialGradient id="g6cf8_tile" cx=".35" cy=".3" r=".8"><stop offset="0" stop-color="#3E3690"/><stop offset="1" stop-color="#171447"/></radialGradient><radialGradient id="g6cf8_glow"><stop offset=".6" stop-color="#FFC83D" stop-opacity=".55"/><stop offset="1" stop-color="#FFC83D" stop-opacity="0"/></radialGradient><filter id="g6cf8_sil" x="-10%" y="-10%" width="120%" height="120%"><feColorMatrix type="matrix" values="0 0 0 0 .52  0 0 0 0 .5  0 0 0 0 .62  0 0 0 1 0"/></filter></defs><g class="o_fx"><circle cx="128" cy="128" r="120" fill="url(#g6cf8_glow)" class="o_br"/><g class="o_rays" fill="#FFE7A0" opacity=".85"><path d="M128 128L249.5 117.4L249.5 138.6Z"/><path d="M128 128L221.5 206.4L206.4 221.5Z"/><path d="M128 128L138.6 249.5L117.4 249.5Z"/><path d="M128 128L49.6 221.5L34.5 206.4Z"/><path d="M128 128L6.5 138.6L6.5 117.4Z"/><path d="M128 128L34.5 49.6L49.6 34.5Z"/><path d="M128 128L117.4 6.5L138.6 6.5Z"/><path d="M128 128L206.4 34.5L221.5 49.6Z"/></g></g><g class="o_frame"><circle cx="128" cy="128" r="104" fill="none" stroke="#FFC83D" stroke-width="10" class="o_hl" opacity="0"/><circle cx="128" cy="128" r="101" fill="#0E0C2B"/><circle cx="128" cy="128" r="95" fill="url(#g6cf8_tile)" stroke="#FFC83D" stroke-width="8" class="o_ring"/><circle cx="128" cy="128" r="86" fill="none" stroke="#FFFFFF" stroke-opacity=".12" stroke-width="2"/><path d="M118 228V222A10 10 0 0 1 138 222V228" fill="none" stroke="#0E0C2B" stroke-width="3" opacity=".9"/></g><g class="o_art"><g class="o_rays" fill="#FFE7A0" opacity=".8"><path d="M228 128L253.5 117L253.5 139Z"/><path d="M214.6 178L242.2 181.2L231.2 200.3Z"/><path d="M178 214.6L200.3 231.2L181.2 242.2Z"/><path d="M128 228L139 253.5L117 253.5Z"/><path d="M78 214.6L74.8 242.2L55.7 231.2Z"/><path d="M41.4 178L24.8 200.3L13.8 181.2Z"/><path d="M28 128L2.5 139L2.5 117Z"/><path d="M41.4 78L13.8 74.8L24.8 55.7Z"/><path d="M78 41.4L55.7 24.8L74.8 13.8Z"/><path d="M128 28L117 2.5L139 2.5Z"/><path d="M178 41.4L181.2 13.8L200.3 24.8Z"/><path d="M214.6 78L231.2 55.7L242.2 74.8Z"/></g><circle cx="128" cy="128" r="90" fill="none" stroke="#0E0C2B" stroke-width="31"/><circle cx="128" cy="128" r="90" fill="none" stroke="#FFC83D" stroke-width="24"/><circle cx="128" cy="128" r="78" fill="none" stroke="#0E0C2B" stroke-width="3.5"/><path d="M98 40L108 16L128 30L148 16L158 40Z" fill="#FFC83D" stroke="#0E0C2B" stroke-width="2.4"/><circle cx="128" cy="216" r="9" fill="#2EE6D6" stroke="#0E0C2B" stroke-width="2.4"/></g><g class="o_fx"><g class="o_tw" style="animation-delay:0s"><path d="M128 6Q131.6 14.4 140 18Q131.6 21.6 128 30Q124.4 21.6 116 18Q124.4 14.4 128 6Z" fill="#FFF6D6"/></g><g class="o_tw" style="animation-delay:-0.8s"><path d="M92 20Q94.4 25.6 100 28Q94.4 30.4 92 36Q89.6 30.4 84 28Q89.6 25.6 92 20Z" fill="#FFF6D6"/></g><g class="o_tw" style="animation-delay:-1.6s"><path d="M164 20Q166.4 25.6 172 28Q166.4 30.4 164 36Q161.6 30.4 156 28Q161.6 25.6 164 20Z" fill="#FFF6D6"/></g></g><g class="o_lock"><path d="M164 168V156A16 16 0 0 1 196 156V168" fill="none" stroke="#0E0C2B" stroke-width="13" stroke-linecap="round"/><path d="M164 168V156A16 16 0 0 1 196 156V168" fill="none" stroke="#E7E4F7" stroke-width="6" stroke-linecap="round"/><rect x="152" y="166" width="56" height="44" rx="10" fill="#E7E4F7" stroke="#0E0C2B" stroke-width="3.5"/><circle cx="180" cy="184" r="6" fill="#5E5A86"/><path d="M180 186v12" stroke="#5E5A86" stroke-width="5" stroke-linecap="round"/></g></svg>