<?xml version="1.0" encoding="UTF-8"?>
<svg xmlns="http://www.w3.org/2000/svg" viewBox="0 0 256 256" width="256" height="256" class="ob" id="obj_decoracion_farol" stroke-linejoin="round" stroke-linecap="round" data-state="bloqueado" data-marco="si" data-id="obj_decoracion_farol" data-nombre="Farol cálido" data-categoria="decoracion" data-rareza="poco" data-precio="80" data-desbloqueo="Tienda" role="img" aria-label="Farol cálido"><title>Farol cálido</title><style>.ob .o_art{transform-box:view-box;transform-origin:128px 160px}.ob[data-state="reposo"] .o_art{animation:o_bob 4s ease-in-out infinite}.ob[data-state="destacado"] .o_art{animation:o_hop 1s ease-in-out infinite}@keyframes o_bob{0%,100%{transform:translateY(0)}50%{transform:translateY(-5px)}}@keyframes o_hop{0%,100%{transform:translateY(0) scale(1)}30%{transform:translateY(-16px) scale(1.06)}55%{transform:translateY(0) scale(1.08,.93)}75%{transform:translateY(-4px) scale(1)}}.ob .o_hl{opacity:0}.ob[data-state="destacado"] .o_hl{opacity:1;animation:o_br 1.6s ease-in-out infinite}.ob .o_br{animation:o_br 4s ease-in-out infinite}@keyframes o_br{0%,100%{opacity:.45}50%{opacity:1}}.ob[data-state="destacado"] .o_br{animation-duration:1.6s}.ob .o_lock{display:none}.ob[data-state="bloqueado"] .o_lock{display:inline}.ob[data-state="bloqueado"] .o_fx,.ob[data-state="bloqueado"] .o_hl,.ob[data-state="bloqueado"] .o_extra{display:none}.ob[data-state="bloqueado"] .o_ring{stroke:#77738F}.ob[data-state="bloqueado"] .o_art{filter:url(#gfd96_sil)}.ob[data-state="bloqueado"] *{animation:none!important}.ob[data-marco="no"] .o_frame,.ob[data-marco="no"] .o_fx{display:none}@media (prefers-reduced-motion:reduce){.ob *{animation:none!important}}.ob .o_tw{transform-box:fill-box;transform-origin:center;animation:o_tw 2.6s ease-in-out infinite}@keyframes o_tw{0%,100%{opacity:.25;transform:scale(.7)}50%{opacity:1;transform:scale(1)}}</style><defs><radialGradient id="gfd96_tile" cx=".35" cy=".3" r=".8"><stop offset="0" stop-color="#3E3690"/><stop offset="1" stop-color="#171447"/></radialGradient><radialGradient id="gfd96_glow"><stop offset=".6" stop-color="#4ADE80" stop-opacity=".55"/><stop offset="1" stop-color="#4ADE80" stop-opacity="0"/></radialGradient><filter id="gfd96_sil" x="-10%" y="-10%" width="120%" height="120%"><feColorMatrix type="matrix" values="0 0 0 0 .52  0 0 0 0 .5  0 0 0 0 .62  0 0 0 1 0"/></filter><radialGradient id="gfd96_lamp"><stop offset="0" stop-color="#FFF3C4"/><stop offset=".5" stop-color="#FFC83D" stop-opacity=".5"/><stop offset="1" stop-color="#FFC83D" stop-opacity="0"/></radialGradient></defs><g class="o_fx"></g><g class="o_frame"><circle cx="128" cy="128" r="104" fill="none" stroke="#4ADE80" stroke-width="10" class="o_hl" opacity="0"/><circle cx="128" cy="128" r="101" fill="#0E0C2B"/><circle cx="128" cy="128" r="95" fill="url(#gfd96_tile)" stroke="#4ADE80" stroke-width="8" class="o_ring"/><circle cx="128" cy="128" r="86" fill="none" stroke="#FFFFFF" stroke-opacity=".12" stroke-width="2"/><path d="M118 228V222A10 10 0 0 1 138 222V228" fill="none" stroke="#0E0C2B" stroke-width="3" opacity=".9"/></g><g class="o_art"><path d="M128 40V70" fill="none" stroke="#0E0C2B" stroke-width="6"/><path d="M108 70H148L144 84H112Z" fill="#8A5A4E" stroke="#0E0C2B" stroke-width="3.5"/><circle cx="128" cy="128" r="56" fill="url(#gfd96_lamp)"/><path d="M108 84H148L156 110V156L146 176H110L100 156V110Z" fill="#FFE7A0" stroke="#0E0C2B" stroke-width="3.5" fill-opacity=".85"/><path d="M128 116Q132.2 125.8 142 130Q132.2 134.2 128 144Q123.8 134.2 114 130Q123.8 125.8 128 116Z" fill="#FFFFFF"/><path d="M104 176H152L146 190H110Z" fill="#8A5A4E" stroke="#0E0C2B" stroke-width="3.5"/><path d="M100 196H156" fill="none" stroke="#0E0C2B" stroke-width="5"/><path d="M154 112V154" fill="none" stroke="#2EE6D6" stroke-width="3"/></g><g class="o_fx"><g class="o_tw"><path d="M204 43Q207.3 50.7 215 54Q207.3 57.3 204 65Q200.7 57.3 193 54Q200.7 50.7 204 43Z" fill="#D9FBE6"/></g></g><g class="o_lock"><path d="M164 168V156A16 16 0 0 1 196 156V168" fill="none" stroke="#0E0C2B" stroke-width="13" stroke-linecap="round"/><path d="M164 168V156A16 16 0 0 1 196 156V168" fill="none" stroke="#E7E4F7" stroke-width="6" stroke-linecap="round"/><rect x="152" y="166" width="56" height="44" rx="10" fill="#E7E4F7" stroke="#0E0C2B" stroke-width="3.5"/><circle cx="180" cy="184" r="6" fill="#5E5A86"/><path d="M180 186v12" stroke="#5E5A86" stroke-width="5" stroke-linecap="round"/></g></svg>