<?xml version="1.0" encoding="UTF-8"?>
<svg viewBox="0 0 1280 720" preserveAspectRatio="xMidYMid slice" class="esc e_cronicas" data-state="calma" role="img" width="1280" height="720" xmlns="http://www.w3.org/2000/svg"><title>Archivo de Crónicas — Calma · Capa fondo</title><style>
.esc .e_soft{stroke:#241F5C;stroke-opacity:.5;stroke-width:2;stroke-linejoin:round;stroke-linecap:round}
.esc .e_ink{stroke:#14123B;stroke-width:3.5;stroke-linejoin:round;stroke-linecap:round}
.esc .e_mote{animation:e_rise var(--d,9s) linear var(--dl,0s) infinite;opacity:0}
.esc .e_bob{animation:e_bob var(--d,6s) ease-in-out var(--dl,0s) infinite}
.esc .e_breathe{animation:e_breathe var(--d,5s) ease-in-out var(--dl,0s) infinite}
.esc .e_sway{transform-box:fill-box;transform-origin:50% 0;animation:e_sway var(--d,6s) ease-in-out var(--dl,0s) infinite}
.esc .e_pulse{animation:e_pulse var(--d,3.2s) ease-in-out var(--dl,0s) infinite}
.esc .e_twinkle{animation:e_twinkle var(--d,4s) ease-in-out var(--dl,0s) infinite}
.esc .e_spin{transform-box:view-box;animation:e_spin var(--d,40s) linear infinite}
.esc .e_flick{transform-box:fill-box;transform-origin:50% 100%;animation:e_flick var(--d,3s) ease-in-out var(--dl,0s) infinite}
@keyframes e_rise{0%{transform:translate(0,0);opacity:0}15%{opacity:var(--o,.85)}80%{opacity:var(--o,.85)}100%{transform:translate(var(--dx,10px),var(--dy,-160px));opacity:0}}
@keyframes e_bob{0%,100%{transform:translateY(0)}50%{transform:translateY(var(--b,-8px))}}
@keyframes e_breathe{0%,100%{opacity:var(--lo,.55)}50%{opacity:var(--hi,1)}}
@keyframes e_sway{0%,100%{transform:rotate(calc(var(--a,2.5deg) * -1))}50%{transform:rotate(var(--a,2.5deg))}}
@keyframes e_pulse{0%,100%{opacity:var(--lo,.3)}45%{opacity:1}}
@keyframes e_twinkle{0%,100%{opacity:.2}50%{opacity:1}}
@keyframes e_spin{to{transform:rotate(360deg)}}
@keyframes e_flick{0%,100%{transform:scale(1,1)}30%{transform:scale(.92,1.08)}60%{transform:scale(1.06,.94)}80%{transform:scale(.97,1.04)}}
.esc .e_hot{cursor:pointer}
.esc .e_hl{opacity:0;transition:opacity .25s;pointer-events:none}
.esc .e_hot:hover .e_hl,.esc .e_hot:focus-visible .e_hl,.esc .e_hot.e_on .e_hl{opacity:1}
.esc .e_hot:focus{outline:none}
@media (prefers-reduced-motion:reduce){.esc *{animation:none!important;transition:none!important}}

.esc .e_slots{pointer-events:none}
.esc .e_slotlbl{font:700 15px "Bricolage Grotesque","Trebuchet MS",sans-serif;fill:#FFFFFF;paint-order:stroke;stroke:#14123B;stroke-width:4px;letter-spacing:.02em}

.e_cronicas{--beam:0;--const:.35;--gold:0}
.e_cronicas[data-state="cronica"]{--beam:1;--const:.5}
.e_cronicas[data-state="descubrimiento"]{--const:1;--gold:1}
.e_cronicas .c_beam{opacity:var(--beam)}
.e_cronicas .c_const{opacity:var(--const)}
.e_cronicas .c_gold{opacity:var(--gold)}
.e_cronicas .c_cr,.e_cronicas .c_ds{display:none}
.e_cronicas[data-state="cronica"] .c_cr,.e_cronicas[data-state="descubrimiento"] .c_ds{display:inline}
.e_cronicas .c_flap{transform-box:fill-box;transform-origin:50% 100%;animation:c_flap var(--d,3s) ease-in-out var(--dl,0s) infinite}
@keyframes c_flap{0%,100%{transform:scaleY(1)}50%{transform:scaleY(.72)}}
.e_cronicas .c_drift{animation:c_drift var(--d,10s) ease-in-out var(--dl,0s) infinite;opacity:0}
@keyframes c_drift{0%{transform:translate(0,0) rotate(0deg);opacity:0}20%{opacity:.9}80%{opacity:.9}100%{transform:translate(var(--dx,80px),var(--dy,-60px)) rotate(var(--r,40deg));opacity:0}}
</style><defs><linearGradient id="ec-ceil" x1="0" y1="0" x2="0" y2="1"><stop offset="0" stop-color="#0E0C2B"/><stop offset="1" stop-color="#2A2470"/></linearGradient><linearGradient id="ec-back" x1="0" y1="0" x2="0" y2="1"><stop offset="0" stop-color="#3A3384"/><stop offset="1" stop-color="#6A5FB0"/></linearGradient><linearGradient id="ec-floor" x1="0" y1="0" x2="0" y2="1"><stop offset="0" stop-color="#8A6478"/><stop offset="1" stop-color="#A47A78"/></linearGradient><linearGradient id="ec-shelfL" x1="0" y1="0" x2="1" y2="0"><stop offset="0" stop-color="#5C3E4A"/><stop offset="1" stop-color="#7A5260"/></linearGradient><linearGradient id="ec-shelfR" x1="0" y1="0" x2="1" y2="0"><stop offset="0" stop-color="#7A5260"/><stop offset="1" stop-color="#4E3446"/></linearGradient><radialGradient id="ec-gold"><stop offset="0" stop-color="#FFF3C4" stop-opacity=".95"/><stop offset="1" stop-color="#FFC83D" stop-opacity="0"/></radialGradient><radialGradient id="ec-fog"><stop offset="0" stop-color="#E7DDFF" stop-opacity=".7"/><stop offset="1" stop-color="#E7DDFF" stop-opacity="0"/></radialGradient><radialGradient id="ec-halo"><stop offset="0" stop-color="#FFE9C8" stop-opacity=".55"/><stop offset="1" stop-color="#FFE9C8" stop-opacity="0"/></radialGradient><linearGradient id="ec-beam" x1="0" y1="1" x2="0" y2="0"><stop offset="0" stop-color="#FFE7A0" stop-opacity=".85"/><stop offset="1" stop-color="#FFE7A0" stop-opacity="0"/></linearGradient><linearGradient id="ec-wood" x1="0" y1="0" x2="1" y2="0"><stop offset="0" stop-color="#B77E62"/><stop offset=".6" stop-color="#8A5A4E"/><stop offset="1" stop-color="#6E4A4E"/></linearGradient></defs><g id="esc_cronicas_fondo" class="e_layer" data-depth="0.2"><rect x="-60" y="-40" width="1400" height="820" fill="url(#ec-back)"/><path d="M-60 -40H1340V150Q640 300 -60 150Z" fill="url(#ec-ceil)"/><circle cx="605.4" cy="114.6" r="1.5" fill="#F4F2FF" class="e_twinkle" style="--d:3s;--dl:-1.1s"/><circle cx="332.7" cy="148.3" r="1.5" fill="#F4F2FF" opacity="0.6"/><circle cx="859.4" cy="2" r="1.2" fill="#F4F2FF" class="e_twinkle" style="--d:6.6s;--dl:-0.4s"/><circle cx="1073.6" cy="-13.6" r="1.5" fill="#F4F2FF" class="e_twinkle" style="--d:4.6s;--dl:-3.9s"/><circle cx="-14.7" cy="-16.6" r="1.8" fill="#F4F2FF" opacity="0.4"/><circle cx="113" cy="63.1" r="0.9" fill="#F4F2FF" class="e_twinkle" style="--d:5.5s;--dl:-0.9s"/><circle cx="907.7" cy="-18.7" r="0.9" fill="#F4F2FF" opacity="0.6"/><circle cx="529.6" cy="101.1" r="1.3" fill="#F4F2FF" class="e_twinkle" style="--d:3.1s;--dl:-2.3s"/><circle cx="862.5" cy="48.4" r="1.1" fill="#F4F2FF" opacity="0.7"/><circle cx="114.8" cy="21.7" r="1.1" fill="#F4F2FF" opacity="0.8"/><circle cx="640" cy="-23.8" r="1.7" fill="#F4F2FF" opacity="0.6"/><circle cx="262.1" cy="64" r="1.2" fill="#F4F2FF" opacity="0.4"/><circle cx="708" cy="9.2" r="1.5" fill="#F4F2FF" class="e_twinkle" style="--d:4.1s;--dl:-1.4s"/><circle cx="826.2" cy="-18.5" r="1.3" fill="#F4F2FF" class="e_twinkle" style="--d:4.1s;--dl:-2s"/><circle cx="1263.9" cy="75.8" r="1.8" fill="#F4F2FF" class="e_twinkle" style="--d:6.7s;--dl:-2.4s"/><circle cx="217.4" cy="134.7" r="1.8" fill="#F4F2FF" class="e_twinkle" style="--d:4.1s;--dl:-3.1s"/><circle cx="424.8" cy="23.1" r="0.7" fill="#F4F2FF" class="e_twinkle" style="--d:5.5s;--dl:-5.4s"/><circle cx="1318" cy="80.8" r="0.7" fill="#F4F2FF" class="e_twinkle" style="--d:6.1s;--dl:-5.1s"/><circle cx="829.6" cy="20.5" r="1.3" fill="#F4F2FF" opacity="0.7"/><circle cx="317.2" cy="178.3" r="1.8" fill="#F4F2FF" class="e_twinkle" style="--d:4.2s;--dl:-3.6s"/><circle cx="338.5" cy="177.7" r="1.3" fill="#F4F2FF" opacity="0.7"/><circle cx="251.1" cy="32.7" r="1" fill="#F4F2FF" opacity="0.7"/><circle cx="139.2" cy="165" r="1.2" fill="#F4F2FF" class="e_twinkle" style="--d:4.7s;--dl:-4.6s"/><circle cx="721.5" cy="107.4" r="1.8" fill="#F4F2FF" opacity="0.7"/><circle cx="528" cy="99.5" r="1.8" fill="#F4F2FF" opacity="0.6"/><circle cx="432.6" cy="51.1" r="1.6" fill="#F4F2FF" opacity="0.4"/><circle cx="925.8" cy="168.8" r="1.7" fill="#F4F2FF" opacity="0.8"/><circle cx="687.5" cy="143.6" r="1.2" fill="#F4F2FF" class="e_twinkle" style="--d:4.4s;--dl:-1.4s"/><circle cx="1230.3" cy="121.6" r="1.3" fill="#F4F2FF" opacity="0.4"/><circle cx="686.6" cy="124.1" r="1.2" fill="#F4F2FF" class="e_twinkle" style="--d:4.6s;--dl:-1.5s"/><circle cx="892" cy="1.2" r="0.8" fill="#F4F2FF" class="e_twinkle" style="--d:5.8s;--dl:-4.4s"/><circle cx="856.8" cy="175.6" r="1.1" fill="#F4F2FF" class="e_twinkle" style="--d:5s;--dl:-2.2s"/><circle cx="203.9" cy="116.8" r="1.1" fill="#F4F2FF" class="e_twinkle" style="--d:4.3s;--dl:-4.1s"/><circle cx="-29.5" cy="49.3" r="1" fill="#F4F2FF" class="e_twinkle" style="--d:4.7s;--dl:-1s"/><circle cx="1209.7" cy="80.2" r="1.5" fill="#F4F2FF" class="e_twinkle" style="--d:4.9s;--dl:-2.9s"/><circle cx="1106.3" cy="25" r="1.3" fill="#F4F2FF" opacity="0.8"/><circle cx="269.4" cy="88.4" r="1.6" fill="#F4F2FF" class="e_twinkle" style="--d:5.7s;--dl:-3.8s"/><circle cx="1282.5" cy="91.9" r="1.5" fill="#F4F2FF" class="e_twinkle" style="--d:5.9s;--dl:-1.9s"/><circle cx="639.9" cy="49.4" r="1.1" fill="#F4F2FF" class="e_twinkle" style="--d:3.9s;--dl:-2.1s"/><circle cx="302.5" cy="-19.9" r="1.7" fill="#F4F2FF" class="e_twinkle" style="--d:6.7s;--dl:-4s"/><circle cx="489.1" cy="162.1" r="1.8" fill="#F4F2FF" class="e_twinkle" style="--d:3.5s;--dl:-2.2s"/><circle cx="1106.1" cy="103.9" r="1.6" fill="#F4F2FF" opacity="0.7"/><circle cx="318" cy="59.5" r="1.2" fill="#F4F2FF" class="e_twinkle" style="--d:4.6s;--dl:-3.7s"/><circle cx="191" cy="15.1" r="1" fill="#F4F2FF" opacity="0.6"/><circle cx="32" cy="153.8" r="1.7" fill="#F4F2FF" opacity="0.5"/><circle cx="959.1" cy="37.2" r="0.9" fill="#F4F2FF" opacity="0.8"/><circle cx="247.2" cy="163.6" r="0.7" fill="#F4F2FF" class="e_twinkle" style="--d:3.1s;--dl:-0.5s"/><circle cx="182" cy="127.5" r="1.1" fill="#F4F2FF" class="e_twinkle" style="--d:3.7s;--dl:-1.2s"/><circle cx="1132.6" cy="103.5" r="0.8" fill="#F4F2FF" opacity="0.6"/><circle cx="569.9" cy="86.1" r="1.5" fill="#F4F2FF" opacity="0.6"/><circle cx="824.3" cy="72.8" r="1.5" fill="#F4F2FF" class="e_twinkle" style="--d:4.7s;--dl:-2.4s"/><circle cx="932.4" cy="31.3" r="1.8" fill="#F4F2FF" opacity="0.8"/><circle cx="898.9" cy="180.4" r="1.5" fill="#F4F2FF" opacity="0.6"/><circle cx="786.4" cy="135.9" r="1.7" fill="#F4F2FF" class="e_twinkle" style="--d:3.2s;--dl:-0.4s"/><circle cx="74.6" cy="-17.6" r="0.7" fill="#F4F2FF" class="e_twinkle" style="--d:3.5s;--dl:-2.4s"/><circle cx="797.5" cy="182.4" r="1.9" fill="#F4F2FF" opacity="0.8"/><circle cx="-1.8" cy="20.1" r="1.8" fill="#F4F2FF" opacity="0.5"/><circle cx="989.3" cy="63.2" r="1.4" fill="#F4F2FF" class="e_twinkle" style="--d:4s;--dl:-0.3s"/><circle cx="785.3" cy="179.6" r="1.9" fill="#F4F2FF" opacity="0.8"/><circle cx="452.6" cy="35.6" r="1.8" fill="#F4F2FF" opacity="0.7"/><circle cx="-22.9" cy="20.3" r="1.3" fill="#F4F2FF" opacity="0.8"/><circle cx="989.9" cy="44.7" r="1.2" fill="#F4F2FF" opacity="0.8"/><circle cx="619.6" cy="12.8" r="1.4" fill="#F4F2FF" opacity="0.5"/><circle cx="273.5" cy="54.8" r="1.4" fill="#F4F2FF" class="e_twinkle" style="--d:5.2s;--dl:-4.9s"/><circle cx="973.1" cy="25.5" r="1.2" fill="#F4F2FF" class="e_twinkle" style="--d:5.9s;--dl:-3.8s"/><circle cx="195" cy="90.6" r="1.4" fill="#F4F2FF" opacity="0.5"/><circle cx="381.4" cy="48.1" r="1.9" fill="#F4F2FF" class="e_twinkle" style="--d:5s;--dl:-2.3s"/><circle cx="195.3" cy="57.9" r="0.9" fill="#F4F2FF" class="e_twinkle" style="--d:4.5s;--dl:-1.6s"/><circle cx="1235.6" cy="35.3" r="1.1" fill="#F4F2FF" opacity="0.5"/><circle cx="661.4" cy="112.5" r="0.8" fill="#F4F2FF" opacity="0.4"/><g class="c_const"><path d="M150 60L210 30L270 70L330 50L380 100" fill="none" stroke="#B9B0F5" stroke-width="1.6" opacity=".7"/><circle cx="150" cy="60" r="3.2" fill="#F4F2FF"/><circle cx="210" cy="30" r="3.2" fill="#F4F2FF"/><circle cx="270" cy="70" r="3.2" fill="#F4F2FF"/><circle cx="330" cy="50" r="3.2" fill="#F4F2FF"/><circle cx="380" cy="100" r="3.2" fill="#F4F2FF"/><path d="M880 40L940 90L1010 70L1060 120L1130 90" fill="none" stroke="#B9B0F5" stroke-width="1.6" opacity=".7"/><circle cx="880" cy="40" r="3.2" fill="#F4F2FF"/><circle cx="940" cy="90" r="3.2" fill="#F4F2FF"/><circle cx="1010" cy="70" r="3.2" fill="#F4F2FF"/><circle cx="1060" cy="120" r="3.2" fill="#F4F2FF"/><circle cx="1130" cy="90" r="3.2" fill="#F4F2FF"/><path d="M470 30L520 70L560 40" fill="none" stroke="#B9B0F5" stroke-width="1.6" opacity=".7"/><circle cx="470" cy="30" r="3.2" fill="#F4F2FF"/><circle cx="520" cy="70" r="3.2" fill="#F4F2FF"/><circle cx="560" cy="40" r="3.2" fill="#F4F2FF"/></g><g class="c_const"><path d="M600 150L600 100L614 70L640 58L666 70L680 100L680 150" fill="none" stroke="#FFC83D" stroke-width="2.4"/><circle cx="600" cy="150" r="4" fill="#FFF3C4"/><circle cx="600" cy="100" r="4" fill="#FFF3C4"/><circle cx="614" cy="70" r="4" fill="#FFF3C4"/><circle cx="640" cy="58" r="4" fill="#FFF3C4"/><circle cx="666" cy="70" r="4" fill="#FFF3C4"/><circle cx="680" cy="100" r="4" fill="#FFF3C4"/><circle cx="680" cy="150" r="4" fill="#FFF3C4"/><path d="M640 96Q643.4 104.6 652 108Q643.4 111.4 640 120Q636.6 111.4 628 108Q636.6 104.6 640 96Z" fill="#FFF3C4"/></g><g class="c_gold"><g class="e_breathe" style="--d:3s;--lo:.6"><circle cx="640" cy="100" r="90" fill="url(#ec-gold)"/></g></g><rect x="435.2" y="197.6" width="22.4" height="179.2" fill="#4E3446" opacity="0.5"/><rect x="438.2" y="204.7" width="8.8" height="20.9" rx="2" fill="#2EE6D6" opacity="0.2"/><rect x="448.8" y="208.8" width="10.1" height="16.8" rx="2" fill="#FFC83D" opacity="0.2"/><rect x="438.2" y="237.4" width="7.9" height="16.2" rx="2" fill="#FF6B6B" opacity="0.2"/><rect x="447.5" y="231.7" width="10.2" height="21.9" rx="2" fill="#B79BFF" opacity="0.2"/><rect x="438.2" y="260" width="8.9" height="21.6" rx="2" fill="#FFC83D" opacity="0.2"/><rect x="448.1" y="263.1" width="12.1" height="18.5" rx="2" fill="#7FA36A" opacity="0.2"/><rect x="438.2" y="288.1" width="7.2" height="21.5" rx="2" fill="#8A5CFF" opacity="0.2"/><rect x="446.7" y="293.9" width="13.3" height="15.7" rx="2" fill="#B79BFF" opacity="0.2"/><rect x="438.2" y="316.5" width="10" height="21.1" rx="2" fill="#FF6B6B" opacity="0.2"/><rect x="448.8" y="321.8" width="9.2" height="15.8" rx="2" fill="#2EE6D6" opacity="0.2"/><rect x="438.2" y="348.6" width="10.6" height="17" rx="2" fill="#2EE6D6" opacity="0.2"/><rect x="451.2" y="344.3" width="8.6" height="21.3" rx="2" fill="#8A5CFF" opacity="0.2"/><rect x="822.4" y="197.6" width="22.4" height="179.2" fill="#4E3446" opacity="0.5"/><rect x="825.4" y="209.6" width="9.6" height="16" rx="2" fill="#FFC83D" opacity="0.2"/><rect x="837" y="209" width="12.5" height="16.6" rx="2" fill="#E05CC8" opacity="0.2"/><rect x="825.4" y="232.5" width="8.3" height="21.1" rx="2" fill="#5B34D6" opacity="0.2"/><rect x="825.4" y="263.9" width="9.5" height="17.7" rx="2" fill="#2EE6D6" opacity="0.2"/><rect x="836.5" y="260.9" width="10.2" height="20.7" rx="2" fill="#B79BFF" opacity="0.2"/><rect x="825.4" y="288" width="9.6" height="21.6" rx="2" fill="#5B34D6" opacity="0.2"/><rect x="836.2" y="292.9" width="11.7" height="16.7" rx="2" fill="#8A5CFF" opacity="0.2"/><rect x="825.4" y="317.2" width="12.6" height="20.4" rx="2" fill="#2EE6D6" opacity="0.2"/><rect x="825.4" y="345.9" width="13.1" height="19.7" rx="2" fill="#7FA36A" opacity="0.2"/><rect x="352" y="156" width="31.5" height="252" fill="#4E3446" opacity="0.5"/><rect x="355" y="165.8" width="11.6" height="29.6" rx="2" fill="#2EE6D6" opacity="0.3"/><rect x="369" y="173.4" width="11.2" height="22" rx="2" fill="#FF6B6B" opacity="0.3"/><rect x="355" y="203.5" width="13" height="31.3" rx="2" fill="#FFC83D" opacity="0.3"/><rect x="355" y="248.6" width="10.2" height="25.5" rx="2" fill="#7FA36A" opacity="0.3"/><rect x="367.2" y="250.5" width="12.3" height="23.6" rx="2" fill="#B79BFF" opacity="0.3"/><rect x="355" y="289.1" width="13.5" height="24.4" rx="2" fill="#8A5CFF" opacity="0.3"/><rect x="369.2" y="289.4" width="9.9" height="24.1" rx="2" fill="#8A5CFF" opacity="0.3"/><rect x="355" y="322.4" width="13.9" height="30.4" rx="2" fill="#8A5CFF" opacity="0.3"/><rect x="370.7" y="323.2" width="8" height="29.7" rx="2" fill="#7FA36A" opacity="0.3"/><rect x="355" y="361.9" width="12.5" height="30.3" rx="2" fill="#2EE6D6" opacity="0.3"/><rect x="368.1" y="363.6" width="11.3" height="28.7" rx="2" fill="#7FA36A" opacity="0.3"/><rect x="896.5" y="156" width="31.5" height="252" fill="#4E3446" opacity="0.5"/><rect x="899.5" y="164.9" width="10.1" height="30.5" rx="2" fill="#7FA36A" opacity="0.3"/><rect x="910.7" y="171.4" width="13.9" height="23.9" rx="2" fill="#E05CC8" opacity="0.3"/><rect x="899.5" y="205.2" width="11.3" height="29.6" rx="2" fill="#E05CC8" opacity="0.3"/><rect x="912.3" y="212" width="8.1" height="22.7" rx="2" fill="#E05CC8" opacity="0.3"/><rect x="899.5" y="251.5" width="9.4" height="22.6" rx="2" fill="#FF6B6B" opacity="0.3"/><rect x="910.5" y="248.7" width="10.3" height="25.4" rx="2" fill="#FF6B6B" opacity="0.3"/><rect x="921.6" y="250.8" width="8.5" height="23.3" rx="2" fill="#2EE6D6" opacity="0.3"/><rect x="899.5" y="287.3" width="11.8" height="26.2" rx="2" fill="#B79BFF" opacity="0.3"/><rect x="913.1" y="283.7" width="8.2" height="29.8" rx="2" fill="#FF6B6B" opacity="0.3"/><rect x="899.5" y="330.6" width="10.8" height="22.3" rx="2" fill="#7FA36A" opacity="0.3"/><rect x="912" y="327.2" width="7.3" height="25.7" rx="2" fill="#E05CC8" opacity="0.3"/><rect x="921.3" y="322.9" width="13.4" height="29.9" rx="2" fill="#E05CC8" opacity="0.3"/><rect x="899.5" y="370.1" width="10.9" height="22.1" rx="2" fill="#E05CC8" opacity="0.3"/><rect x="912.5" y="366.1" width="13.3" height="26.2" rx="2" fill="#FFC83D" opacity="0.3"/><rect x="256" y="108" width="42" height="336" fill="#4E3446" opacity="0.6"/><rect x="259" y="127.4" width="8.8" height="33.1" rx="2" fill="#8A5CFF" opacity="0.4"/><rect x="270.1" y="132.8" width="11" height="27.7" rx="2" fill="#5B34D6" opacity="0.4"/><rect x="282.5" y="123.9" width="13.7" height="36.6" rx="2" fill="#FF6B6B" opacity="0.4"/><rect x="259" y="183.9" width="7.1" height="29.1" rx="2" fill="#FF6B6B" opacity="0.4"/><rect x="267.4" y="176.1" width="7.6" height="36.9" rx="2" fill="#2EE6D6" opacity="0.4"/><rect x="276.6" y="183.3" width="7.5" height="29.7" rx="2" fill="#B79BFF" opacity="0.4"/><rect x="284.6" y="183.5" width="13.7" height="29.5" rx="2" fill="#2EE6D6" opacity="0.4"/><rect x="259" y="233.7" width="9.6" height="31.8" rx="2" fill="#7FA36A" opacity="0.4"/><rect x="269.3" y="229.5" width="8.2" height="36" rx="2" fill="#2EE6D6" opacity="0.4"/><rect x="279.8" y="232.2" width="13.9" height="33.3" rx="2" fill="#8A5CFF" opacity="0.4"/><rect x="259" y="286.7" width="7.7" height="31.3" rx="2" fill="#7FA36A" opacity="0.4"/><rect x="269" y="283.7" width="12.4" height="34.3" rx="2" fill="#5B34D6" opacity="0.4"/><rect x="282.1" y="284.3" width="8.1" height="33.7" rx="2" fill="#E05CC8" opacity="0.4"/><rect x="259" y="337.4" width="13.4" height="33.1" rx="2" fill="#B79BFF" opacity="0.4"/><rect x="274.3" y="340.9" width="13.2" height="29.6" rx="2" fill="#E05CC8" opacity="0.4"/><rect x="288.4" y="336.6" width="12.9" height="33.9" rx="2" fill="#8A5CFF" opacity="0.4"/><rect x="259" y="392.8" width="7" height="30.2" rx="2" fill="#E05CC8" opacity="0.4"/><rect x="267.3" y="393.1" width="12" height="29.9" rx="2" fill="#FF6B6B" opacity="0.4"/><rect x="281.4" y="390.9" width="7.6" height="32.1" rx="2" fill="#B79BFF" opacity="0.4"/><rect x="289.5" y="391.1" width="9.5" height="31.9" rx="2" fill="#7FA36A" opacity="0.4"/><rect x="982" y="108" width="42" height="336" fill="#4E3446" opacity="0.6"/><rect x="985" y="130.3" width="8.7" height="30.2" rx="2" fill="#B79BFF" opacity="0.4"/><rect x="994.4" y="118.7" width="12" height="41.8" rx="2" fill="#5B34D6" opacity="0.4"/><rect x="1008.4" y="118.7" width="7.8" height="41.8" rx="2" fill="#FF6B6B" opacity="0.4"/><rect x="1016.7" y="127.8" width="13" height="32.7" rx="2" fill="#FF6B6B" opacity="0.4"/><rect x="985" y="184.5" width="7.6" height="28.5" rx="2" fill="#7FA36A" opacity="0.4"/><rect x="994.8" y="175.1" width="11.4" height="37.9" rx="2" fill="#7FA36A" opacity="0.4"/><rect x="1007.6" y="179.2" width="8.1" height="33.8" rx="2" fill="#2EE6D6" opacity="0.4"/><rect x="985" y="234.7" width="10.6" height="30.8" rx="2" fill="#7FA36A" opacity="0.4"/><rect x="997.5" y="232" width="8.2" height="33.5" rx="2" fill="#B79BFF" opacity="0.4"/><rect x="1007.9" y="231" width="7.9" height="34.5" rx="2" fill="#2EE6D6" opacity="0.4"/><rect x="985" y="276.5" width="13.3" height="41.5" rx="2" fill="#8A5CFF" opacity="0.4"/><rect x="1000.1" y="282.2" width="13" height="35.8" rx="2" fill="#E05CC8" opacity="0.4"/><rect x="1014.3" y="276.9" width="11.1" height="41.1" rx="2" fill="#7FA36A" opacity="0.4"/><rect x="985" y="339.1" width="12.7" height="31.4" rx="2" fill="#2EE6D6" opacity="0.4"/><rect x="998.6" y="342.9" width="12.8" height="27.6" rx="2" fill="#E05CC8" opacity="0.4"/><rect x="1013" y="339.9" width="10" height="30.6" rx="2" fill="#B79BFF" opacity="0.4"/><rect x="985" y="382.6" width="13.4" height="40.4" rx="2" fill="#E05CC8" opacity="0.4"/><rect x="999.5" y="393.1" width="10.1" height="29.9" rx="2" fill="#2EE6D6" opacity="0.4"/><rect x="1011.8" y="381.6" width="11.3" height="41.4" rx="2" fill="#B79BFF" opacity="0.4"/><ellipse cx="640" cy="330" rx="260" ry="220" fill="url(#ec-fog)"/><polygon points="-60,-40 243.2,101.6 243.2,461.2 -60,780" fill="url(#ec-shelfL)"/><path d="M243.2 146.6L-60 62.5" stroke="#3A2638" stroke-width="4" opacity=".55"/><path d="M243.2 191.5L-60 165" stroke="#3A2638" stroke-width="4" opacity=".55"/><path d="M243.2 236.5L-60 267.5" stroke="#3A2638" stroke-width="4" opacity=".55"/><path d="M243.2 281.4L-60 370" stroke="#3A2638" stroke-width="4" opacity=".55"/><path d="M243.2 326.4L-60 472.5" stroke="#3A2638" stroke-width="4" opacity=".55"/><path d="M243.2 371.3L-60 575" stroke="#3A2638" stroke-width="4" opacity=".55"/><path d="M243.2 416.2L-60 677.5" stroke="#3A2638" stroke-width="4" opacity=".55"/><polygon points="243.2,112.4 228,106 228,138.5 243.2,143" fill="#E05CC8" opacity="0.3"/><polygon points="224.2,104.4 209.1,98 209.1,133 224.2,137.4" fill="#2EE6D6" opacity="0.3"/><polygon points="205.3,96.4 190.1,90 190.1,127.4 205.3,131.9" fill="#5B34D6" opacity="0.2"/><polygon points="186.3,88.4 171.2,82 171.2,121.9 186.3,126.3" fill="#2EE6D6" opacity="0.3"/><polygon points="167.4,80.4 152.2,74.1 152.2,116.4 167.4,120.8" fill="#5B34D6" opacity="0.2"/><polygon points="148.4,72.5 133.3,66.1 133.3,110.8 148.4,115.2" fill="#FFC83D" opacity="0.3"/><polygon points="129.5,64.5 114.3,58.1 114.3,105.3 129.5,109.7" fill="#5B34D6" opacity="0.2"/><polygon points="110.5,56.5 95.4,50.1 95.4,99.7 110.5,104.2" fill="#2EE6D6" opacity="0.3"/><polygon points="91.6,48.5 76.4,42.1 76.4,94.2 91.6,98.6" fill="#E05CC8" opacity="0.3"/><polygon points="72.7,40.5 57.5,34.1 57.5,88.7 72.7,93.1" fill="#5B34D6" opacity="0.3"/><polygon points="53.7,32.5 38.5,26.1 38.5,83.1 53.7,87.5" fill="#B79BFF" opacity="0.2"/><polygon points="34.8,24.5 19.6,18.1 19.6,77.6 34.8,82" fill="#7FA36A" opacity="0.2"/><polygon points="15.8,16.5 0.6,10.2 0.6,72 15.8,76.5" fill="#B79BFF" opacity="0.2"/><polygon points="-3.2,8.6 -18.3,2.2 -18.3,66.5 -3.2,70.9" fill="#8A5CFF" opacity="0.3"/><polygon points="-22.1,0.6 -37.3,-5.8 -37.3,60.9 -22.1,65.4" fill="#FFC83D" opacity="0.3"/><polygon points="-41.1,-7.4 -56.2,-13.8 -56.2,55.4 -41.1,59.8" fill="#FFC83D" opacity="0.3"/><polygon points="243.2,157.3 228,153.8 228,186.3 243.2,187.9" fill="#2EE6D6" opacity="0.4"/><polygon points="224.2,152.9 209.1,149.4 209.1,184.4 224.2,186" fill="#FFC83D" opacity="0.4"/><polygon points="205.3,148.6 190.1,145 190.1,182.5 205.3,184" fill="#E05CC8" opacity="0.4"/><polygon points="186.3,144.2 171.2,140.7 171.2,180.5 186.3,182.1" fill="#FFC83D" opacity="0.4"/><polygon points="167.4,139.8 152.2,136.3 152.2,178.6 167.4,180.1" fill="#2EE6D6" opacity="0.3"/><polygon points="148.4,135.4 133.3,131.9 133.3,176.6 148.4,178.2" fill="#2EE6D6" opacity="0.4"/><polygon points="129.5,131 114.3,127.5 114.3,174.7 129.5,176.2" fill="#FF6B6B" opacity="0.3"/><polygon points="110.5,126.6 95.4,123.1 95.4,172.7 110.5,174.3" fill="#B79BFF" opacity="0.3"/><polygon points="91.6,122.2 76.4,118.7 76.4,170.8 91.6,172.4" fill="#B79BFF" opacity="0.3"/><polygon points="72.7,117.8 57.5,114.3 57.5,168.9 72.7,170.4" fill="#E05CC8" opacity="0.3"/><polygon points="53.7,113.4 38.5,109.9 38.5,166.9 53.7,168.5" fill="#B79BFF" opacity="0.2"/><polygon points="34.8,109 19.6,105.5 19.6,165 34.8,166.5" fill="#FFC83D" opacity="0.2"/><polygon points="15.8,104.7 0.6,101.1 0.6,163 15.8,164.6" fill="#E05CC8" opacity="0.3"/><polygon points="-3.2,100.3 -18.3,96.8 -18.3,161.1 -3.2,162.6" fill="#7FA36A" opacity="0.3"/><polygon points="-22.1,95.9 -37.3,92.4 -37.3,159.1 -22.1,160.7" fill="#FFC83D" opacity="0.3"/><polygon points="-41.1,91.5 -56.2,88 -56.2,157.2 -41.1,158.7" fill="#B79BFF" opacity="0.3"/><polygon points="243.2,202.3 228,201.7 228,234.2 243.2,232.9" fill="#FF6B6B" opacity="0.2"/><polygon points="224.2,201.5 209.1,200.9 209.1,235.8 224.2,234.5" fill="#B79BFF" opacity="0.4"/><polygon points="205.3,200.7 190.1,200.1 190.1,237.5 205.3,236.2" fill="#8A5CFF" opacity="0.3"/><polygon points="186.3,199.9 171.2,199.3 171.2,239.1 186.3,237.8" fill="#FF6B6B" opacity="0.2"/><polygon points="167.4,199.1 152.2,198.5 152.2,240.8 167.4,239.5" fill="#E05CC8" opacity="0.4"/><polygon points="148.4,198.3 133.3,197.7 133.3,242.4 148.4,241.1" fill="#E05CC8" opacity="0.2"/><polygon points="129.5,197.5 114.3,196.9 114.3,244.1 129.5,242.8" fill="#7FA36A" opacity="0.2"/><polygon points="110.5,196.7 95.4,196.1 95.4,245.7 110.5,244.4" fill="#5B34D6" opacity="0.3"/><polygon points="91.6,195.9 76.4,195.3 76.4,247.4 91.6,246.1" fill="#E05CC8" opacity="0.3"/><polygon points="72.7,195.2 57.5,194.5 57.5,249.1 72.7,247.7" fill="#E05CC8" opacity="0.3"/><polygon points="53.7,194.4 38.5,193.7 38.5,250.7 53.7,249.4" fill="#5B34D6" opacity="0.4"/><polygon points="34.8,193.6 19.6,192.9 19.6,252.4 34.8,251" fill="#2EE6D6" opacity="0.4"/><polygon points="15.8,192.8 0.6,192.1 0.6,254 15.8,252.7" fill="#7FA36A" opacity="0.3"/><polygon points="-3.2,192 -18.3,191.3 -18.3,255.7 -3.2,254.3" fill="#B79BFF" opacity="0.3"/><polygon points="-22.1,191.2 -37.3,190.6 -37.3,257.3 -22.1,256" fill="#B79BFF" opacity="0.4"/><polygon points="-41.1,190.4 -56.2,189.8 -56.2,259 -41.1,257.6" fill="#7FA36A" opacity="0.2"/><polygon points="243.2,247.2 228,249.5 228,282 243.2,277.8" fill="#8A5CFF" opacity="0.3"/><polygon points="224.2,250 209.1,252.3 209.1,287.3 224.2,283.1" fill="#B79BFF" opacity="0.4"/><polygon points="205.3,252.8 190.1,255.1 190.1,292.5 205.3,288.3" fill="#FF6B6B" opacity="0.2"/><polygon points="186.3,255.6 171.2,257.9 171.2,297.8 186.3,293.6" fill="#FFC83D" opacity="0.2"/><polygon points="167.4,258.5 152.2,260.7 152.2,303 167.4,298.8" fill="#FFC83D" opacity="0.4"/><polygon points="148.4,261.3 133.3,263.5 133.3,308.3 148.4,304.1" fill="#B79BFF" opacity="0.2"/><polygon points="129.5,264.1 114.3,266.3 114.3,313.5 129.5,309.3" fill="#2EE6D6" opacity="0.3"/><polygon points="110.5,266.9 95.4,269.1 95.4,318.8 110.5,314.6" fill="#2EE6D6" opacity="0.3"/><polygon points="91.6,269.7 76.4,271.9 76.4,324 91.6,319.8" fill="#E05CC8" opacity="0.3"/><polygon points="72.7,272.5 57.5,274.7 57.5,329.3 72.7,325.1" fill="#FF6B6B" opacity="0.3"/><polygon points="53.7,275.3 38.5,277.5 38.5,334.5 53.7,330.3" fill="#7FA36A" opacity="0.4"/><polygon points="34.8,278.1 19.6,280.3 19.6,339.8 34.8,335.6" fill="#FFC83D" opacity="0.4"/><polygon points="15.8,280.9 0.6,283.1 0.6,345 15.8,340.8" fill="#B79BFF" opacity="0.3"/><polygon points="-3.2,283.7 -18.3,285.9 -18.3,350.3 -3.2,346.1" fill="#FF6B6B" opacity="0.4"/><polygon points="-22.1,286.5 -37.3,288.7 -37.3,355.5 -22.1,351.3" fill="#FFC83D" opacity="0.3"/><polygon points="-41.1,289.3 -56.2,291.5 -56.2,360.8 -41.1,356.6" fill="#8A5CFF" opacity="0.4"/><polygon points="243.2,292.2 228,297.3 228,329.8 243.2,322.8" fill="#E05CC8" opacity="0.3"/><polygon points="224.2,298.6 209.1,303.7 209.1,338.7 224.2,331.6" fill="#FF6B6B" opacity="0.3"/><polygon points="205.3,305 190.1,310.1 190.1,347.5 205.3,340.4" fill="#FFC83D" opacity="0.3"/><polygon points="186.3,311.4 171.2,316.5 171.2,356.4 186.3,349.3" fill="#FFC83D" opacity="0.3"/><polygon points="167.4,317.8 152.2,322.9 152.2,365.2 167.4,358.1" fill="#7FA36A" opacity="0.2"/><polygon points="148.4,324.2 133.3,329.3 133.3,374.1 148.4,367" fill="#2EE6D6" opacity="0.3"/><polygon points="129.5,330.6 114.3,335.7 114.3,382.9 129.5,375.8" fill="#FF6B6B" opacity="0.3"/><polygon points="110.5,337 95.4,342.1 95.4,391.8 110.5,384.7" fill="#2EE6D6" opacity="0.3"/><polygon points="91.6,343.4 76.4,348.5 76.4,400.6 91.6,393.5" fill="#FF6B6B" opacity="0.4"/><polygon points="72.7,349.8 57.5,354.9 57.5,409.5 72.7,402.4" fill="#B79BFF" opacity="0.4"/><polygon points="53.7,356.2 38.5,361.3 38.5,418.3 53.7,411.2" fill="#B79BFF" opacity="0.3"/><polygon points="34.8,362.6 19.6,367.7 19.6,427.1 34.8,420.1" fill="#7FA36A" opacity="0.3"/><polygon points="15.8,369 0.6,374.1 0.6,436 15.8,428.9" fill="#E05CC8" opacity="0.3"/><polygon points="-3.2,375.4 -18.3,380.5 -18.3,444.8 -3.2,437.8" fill="#7FA36A" opacity="0.3"/><polygon points="-22.1,381.8 -37.3,386.9 -37.3,453.7 -22.1,446.6" fill="#5B34D6" opacity="0.3"/><polygon points="-41.1,388.2 -56.2,393.3 -56.2,462.5 -41.1,455.5" fill="#FF6B6B" opacity="0.3"/><polygon points="243.2,337.1 228,345.1 228,377.7 243.2,367.7" fill="#8A5CFF" opacity="0.3"/><polygon points="224.2,347.1 209.1,355.1 209.1,390.1 224.2,380.1" fill="#7FA36A" opacity="0.3"/><polygon points="205.3,357.1 190.1,365.1 190.1,402.5 205.3,392.6" fill="#FF6B6B" opacity="0.3"/><polygon points="186.3,367.1 171.2,375.1 171.2,415 186.3,405" fill="#7FA36A" opacity="0.4"/><polygon points="167.4,377.1 152.2,385.1 152.2,427.4 167.4,417.5" fill="#FF6B6B" opacity="0.4"/><polygon points="148.4,387.1 133.3,395.1 133.3,439.9 148.4,429.9" fill="#7FA36A" opacity="0.4"/><polygon points="129.5,397.1 114.3,405.1 114.3,452.3 129.5,442.4" fill="#B79BFF" opacity="0.3"/><polygon points="110.5,407.1 95.4,415.1 95.4,464.8 110.5,454.8" fill="#8A5CFF" opacity="0.3"/><polygon points="91.6,417.1 76.4,425.1 76.4,477.2 91.6,467.3" fill="#8A5CFF" opacity="0.3"/><polygon points="72.7,427.1 57.5,435.1 57.5,489.7 72.7,479.7" fill="#5B34D6" opacity="0.2"/><polygon points="53.7,437.1 38.5,445.1 38.5,502.1 53.7,492.1" fill="#FFC83D" opacity="0.4"/><polygon points="34.8,447.1 19.6,455.1 19.6,514.5 34.8,504.6" fill="#B79BFF" opacity="0.3"/><polygon points="15.8,457.1 0.6,465.1 0.6,527 15.8,517" fill="#E05CC8" opacity="0.3"/><polygon points="-3.2,467.1 -18.3,475.1 -18.3,539.4 -3.2,529.5" fill="#2EE6D6" opacity="0.3"/><polygon points="-22.1,477.1 -37.3,485.1 -37.3,551.9 -22.1,541.9" fill="#B79BFF" opacity="0.3"/><polygon points="-41.1,487.1 -56.2,495.1 -56.2,564.3 -41.1,554.4" fill="#E05CC8" opacity="0.3"/><polygon points="243.2,382.1 228,393 228,425.5 243.2,412.7" fill="#FFC83D" opacity="0.3"/><polygon points="224.2,395.7 209.1,406.6 209.1,441.5 224.2,428.7" fill="#7FA36A" opacity="0.3"/><polygon points="205.3,409.3 190.1,420.2 190.1,457.6 205.3,444.7" fill="#FF6B6B" opacity="0.3"/><polygon points="186.3,422.9 171.2,433.7 171.2,473.6 186.3,460.8" fill="#2EE6D6" opacity="0.3"/><polygon points="167.4,436.5 152.2,447.3 152.2,489.6 167.4,476.8" fill="#5B34D6" opacity="0.4"/><polygon points="148.4,450.1 133.3,460.9 133.3,505.7 148.4,492.9" fill="#FF6B6B" opacity="0.3"/><polygon points="129.5,463.7 114.3,474.5 114.3,521.7 129.5,508.9" fill="#B79BFF" opacity="0.3"/><polygon points="110.5,477.2 95.4,488.1 95.4,537.8 110.5,524.9" fill="#B79BFF" opacity="0.3"/><polygon points="91.6,490.8 76.4,501.7 76.4,553.8 91.6,541" fill="#FFC83D" opacity="0.4"/><polygon points="72.7,504.4 57.5,515.3 57.5,569.8 72.7,557" fill="#E05CC8" opacity="0.3"/><polygon points="53.7,518 38.5,528.9 38.5,585.9 53.7,573.1" fill="#B79BFF" opacity="0.4"/><polygon points="34.8,531.6 19.6,542.5 19.6,601.9 34.8,589.1" fill="#8A5CFF" opacity="0.3"/><polygon points="15.8,545.2 0.6,556.1 0.6,618 15.8,605.1" fill="#2EE6D6" opacity="0.4"/><polygon points="-3.2,558.8 -18.3,569.7 -18.3,634 -3.2,621.2" fill="#B79BFF" opacity="0.3"/><polygon points="-22.1,572.4 -37.3,583.3 -37.3,650.1 -22.1,637.2" fill="#5B34D6" opacity="0.4"/><polygon points="-41.1,586 -56.2,596.9 -56.2,666.1 -41.1,653.3" fill="#FFC83D" opacity="0.2"/><polygon points="243.2,427 228,440.8 228,473.3 243.2,457.6" fill="#8A5CFF" opacity="0.2"/><polygon points="224.2,444.2 209.1,458 209.1,493 224.2,477.2" fill="#FFC83D" opacity="0.4"/><polygon points="205.3,461.4 190.1,475.2 190.1,512.6 205.3,496.9" fill="#2EE6D6" opacity="0.2"/><polygon points="186.3,478.6 171.2,492.4 171.2,532.2 186.3,516.5" fill="#E05CC8" opacity="0.4"/><polygon points="167.4,495.8 152.2,509.6 152.2,551.9 167.4,536.2" fill="#FFC83D" opacity="0.4"/><polygon points="148.4,513 133.3,526.7 133.3,571.5 148.4,555.8" fill="#8A5CFF" opacity="0.3"/><polygon points="129.5,530.2 114.3,543.9 114.3,591.1 129.5,575.4" fill="#5B34D6" opacity="0.3"/><polygon points="110.5,547.4 95.4,561.1 95.4,610.8 110.5,595.1" fill="#5B34D6" opacity="0.4"/><polygon points="91.6,564.6 76.4,578.3 76.4,630.4 91.6,614.7" fill="#7FA36A" opacity="0.3"/><polygon points="72.7,581.8 57.5,595.5 57.5,650 72.7,634.3" fill="#5B34D6" opacity="0.3"/><polygon points="53.7,599 38.5,612.7 38.5,669.7 53.7,654" fill="#7FA36A" opacity="0.2"/><polygon points="34.8,616.1 19.6,629.9 19.6,689.3 34.8,673.6" fill="#5B34D6" opacity="0.4"/><polygon points="15.8,633.3 0.6,647.1 0.6,709 15.8,693.3" fill="#B79BFF" opacity="0.3"/><polygon points="-3.2,650.5 -18.3,664.3 -18.3,728.6 -3.2,712.9" fill="#5B34D6" opacity="0.3"/><polygon points="-22.1,667.7 -37.3,681.5 -37.3,748.2 -22.1,732.5" fill="#B79BFF" opacity="0.3"/><polygon points="-41.1,684.9 -56.2,698.7 -56.2,767.9 -41.1,752.2" fill="#8A5CFF" opacity="0.3"/><polygon points="1340,-40 1036.8,101.6 1036.8,461.2 1340,780" fill="url(#ec-shelfR)"/><path d="M1036.8 146.6L1340 62.5" stroke="#3A2638" stroke-width="4" opacity=".55"/><path d="M1036.8 191.5L1340 165" stroke="#3A2638" stroke-width="4" opacity=".55"/><path d="M1036.8 236.5L1340 267.5" stroke="#3A2638" stroke-width="4" opacity=".55"/><path d="M1036.8 281.4L1340 370" stroke="#3A2638" stroke-width="4" opacity=".55"/><path d="M1036.8 326.4L1340 472.5" stroke="#3A2638" stroke-width="4" opacity=".55"/><path d="M1036.8 371.3L1340 575" stroke="#3A2638" stroke-width="4" opacity=".55"/><path d="M1036.8 416.2L1340 677.5" stroke="#3A2638" stroke-width="4" opacity=".55"/><polygon points="1036.8,112.4 1052,106 1052,138.5 1036.8,143" fill="#5B34D6" opacity="0.3"/><polygon points="1055.8,104.4 1070.9,98 1070.9,133 1055.8,137.4" fill="#7FA36A" opacity="0.4"/><polygon points="1074.7,96.4 1089.9,90 1089.9,127.4 1074.7,131.9" fill="#B79BFF" opacity="0.3"/><polygon points="1093.6,88.4 1108.8,82 1108.8,121.9 1093.6,126.3" fill="#B79BFF" opacity="0.4"/><polygon points="1112.6,80.4 1127.8,74.1 1127.8,116.4 1112.6,120.8" fill="#FF6B6B" opacity="0.4"/><polygon points="1131.5,72.5 1146.7,66.1 1146.7,110.8 1131.5,115.2" fill="#7FA36A" opacity="0.3"/><polygon points="1150.5,64.5 1165.7,58.1 1165.7,105.3 1150.5,109.7" fill="#FF6B6B" opacity="0.3"/><polygon points="1169.5,56.5 1184.6,50.1 1184.6,99.7 1169.5,104.2" fill="#5B34D6" opacity="0.3"/><polygon points="1188.4,48.5 1203.6,42.1 1203.6,94.2 1188.4,98.6" fill="#FFC83D" opacity="0.2"/><polygon points="1207.3,40.5 1222.5,34.1 1222.5,88.7 1207.3,93.1" fill="#8A5CFF" opacity="0.3"/><polygon points="1226.3,32.5 1241.5,26.1 1241.5,83.1 1226.3,87.5" fill="#8A5CFF" opacity="0.2"/><polygon points="1245.2,24.5 1260.4,18.1 1260.4,77.6 1245.2,82" fill="#7FA36A" opacity="0.2"/><polygon points="1264.2,16.5 1279.4,10.2 1279.4,72 1264.2,76.5" fill="#2EE6D6" opacity="0.2"/><polygon points="1283.2,8.6 1298.3,2.2 1298.3,66.5 1283.2,70.9" fill="#B79BFF" opacity="0.2"/><polygon points="1302.1,0.6 1317.3,-5.8 1317.3,60.9 1302.1,65.4" fill="#B79BFF" opacity="0.3"/><polygon points="1321,-7.4 1336.2,-13.8 1336.2,55.4 1321,59.8" fill="#8A5CFF" opacity="0.4"/><polygon points="1036.8,157.3 1052,153.8 1052,186.3 1036.8,187.9" fill="#2EE6D6" opacity="0.4"/><polygon points="1055.8,152.9 1070.9,149.4 1070.9,184.4 1055.8,186" fill="#FFC83D" opacity="0.3"/><polygon points="1074.7,148.6 1089.9,145 1089.9,182.5 1074.7,184" fill="#E05CC8" opacity="0.3"/><polygon points="1093.6,144.2 1108.8,140.7 1108.8,180.5 1093.6,182.1" fill="#2EE6D6" opacity="0.3"/><polygon points="1112.6,139.8 1127.8,136.3 1127.8,178.6 1112.6,180.1" fill="#B79BFF" opacity="0.3"/><polygon points="1131.5,135.4 1146.7,131.9 1146.7,176.6 1131.5,178.2" fill="#FF6B6B" opacity="0.4"/><polygon points="1150.5,131 1165.7,127.5 1165.7,174.7 1150.5,176.2" fill="#7FA36A" opacity="0.3"/><polygon points="1169.5,126.6 1184.6,123.1 1184.6,172.7 1169.5,174.3" fill="#E05CC8" opacity="0.4"/><polygon points="1188.4,122.2 1203.6,118.7 1203.6,170.8 1188.4,172.4" fill="#5B34D6" opacity="0.3"/><polygon points="1207.3,117.8 1222.5,114.3 1222.5,168.9 1207.3,170.4" fill="#B79BFF" opacity="0.3"/><polygon points="1226.3,113.4 1241.5,109.9 1241.5,166.9 1226.3,168.5" fill="#8A5CFF" opacity="0.3"/><polygon points="1245.2,109 1260.4,105.5 1260.4,165 1245.2,166.5" fill="#5B34D6" opacity="0.3"/><polygon points="1264.2,104.7 1279.4,101.1 1279.4,163 1264.2,164.6" fill="#2EE6D6" opacity="0.3"/><polygon points="1283.2,100.3 1298.3,96.8 1298.3,161.1 1283.2,162.6" fill="#7FA36A" opacity="0.3"/><polygon points="1302.1,95.9 1317.3,92.4 1317.3,159.1 1302.1,160.7" fill="#8A5CFF" opacity="0.4"/><polygon points="1321,91.5 1336.2,88 1336.2,157.2 1321,158.7" fill="#5B34D6" opacity="0.3"/><polygon points="1036.8,202.3 1052,201.7 1052,234.2 1036.8,232.9" fill="#FFC83D" opacity="0.3"/><polygon points="1055.8,201.5 1070.9,200.9 1070.9,235.8 1055.8,234.5" fill="#7FA36A" opacity="0.3"/><polygon points="1074.7,200.7 1089.9,200.1 1089.9,237.5 1074.7,236.2" fill="#B79BFF" opacity="0.2"/><polygon points="1093.6,199.9 1108.8,199.3 1108.8,239.1 1093.6,237.8" fill="#8A5CFF" opacity="0.3"/><polygon points="1112.6,199.1 1127.8,198.5 1127.8,240.8 1112.6,239.5" fill="#2EE6D6" opacity="0.3"/><polygon points="1131.5,198.3 1146.7,197.7 1146.7,242.4 1131.5,241.1" fill="#E05CC8" opacity="0.2"/><polygon points="1150.5,197.5 1165.7,196.9 1165.7,244.1 1150.5,242.8" fill="#2EE6D6" opacity="0.2"/><polygon points="1169.5,196.7 1184.6,196.1 1184.6,245.7 1169.5,244.4" fill="#E05CC8" opacity="0.4"/><polygon points="1188.4,195.9 1203.6,195.3 1203.6,247.4 1188.4,246.1" fill="#5B34D6" opacity="0.2"/><polygon points="1207.3,195.2 1222.5,194.5 1222.5,249.1 1207.3,247.7" fill="#E05CC8" opacity="0.4"/><polygon points="1226.3,194.4 1241.5,193.7 1241.5,250.7 1226.3,249.4" fill="#5B34D6" opacity="0.4"/><polygon points="1245.2,193.6 1260.4,192.9 1260.4,252.4 1245.2,251" fill="#7FA36A" opacity="0.3"/><polygon points="1264.2,192.8 1279.4,192.1 1279.4,254 1264.2,252.7" fill="#FFC83D" opacity="0.3"/><polygon points="1283.2,192 1298.3,191.3 1298.3,255.7 1283.2,254.3" fill="#2EE6D6" opacity="0.4"/><polygon points="1302.1,191.2 1317.3,190.6 1317.3,257.3 1302.1,256" fill="#FF6B6B" opacity="0.3"/><polygon points="1321,190.4 1336.2,189.8 1336.2,259 1321,257.6" fill="#FF6B6B" opacity="0.3"/><polygon points="1036.8,247.2 1052,249.5 1052,282 1036.8,277.8" fill="#7FA36A" opacity="0.3"/><polygon points="1055.8,250 1070.9,252.3 1070.9,287.3 1055.8,283.1" fill="#B79BFF" opacity="0.4"/><polygon points="1074.7,252.8 1089.9,255.1 1089.9,292.5 1074.7,288.3" fill="#FF6B6B" opacity="0.3"/><polygon points="1093.6,255.6 1108.8,257.9 1108.8,297.8 1093.6,293.6" fill="#FF6B6B" opacity="0.4"/><polygon points="1112.6,258.5 1127.8,260.7 1127.8,303 1112.6,298.8" fill="#2EE6D6" opacity="0.3"/><polygon points="1131.5,261.3 1146.7,263.5 1146.7,308.3 1131.5,304.1" fill="#7FA36A" opacity="0.3"/><polygon points="1150.5,264.1 1165.7,266.3 1165.7,313.5 1150.5,309.3" fill="#5B34D6" opacity="0.2"/><polygon points="1169.5,266.9 1184.6,269.1 1184.6,318.8 1169.5,314.6" fill="#E05CC8" opacity="0.3"/><polygon points="1188.4,269.7 1203.6,271.9 1203.6,324 1188.4,319.8" fill="#FFC83D" opacity="0.4"/><polygon points="1207.3,272.5 1222.5,274.7 1222.5,329.3 1207.3,325.1" fill="#2EE6D6" opacity="0.3"/><polygon points="1226.3,275.3 1241.5,277.5 1241.5,334.5 1226.3,330.3" fill="#7FA36A" opacity="0.3"/><polygon points="1245.2,278.1 1260.4,280.3 1260.4,339.8 1245.2,335.6" fill="#5B34D6" opacity="0.3"/><polygon points="1264.2,280.9 1279.4,283.1 1279.4,345 1264.2,340.8" fill="#8A5CFF" opacity="0.2"/><polygon points="1283.2,283.7 1298.3,285.9 1298.3,350.3 1283.2,346.1" fill="#FFC83D" opacity="0.3"/><polygon points="1302.1,286.5 1317.3,288.7 1317.3,355.5 1302.1,351.3" fill="#8A5CFF" opacity="0.3"/><polygon points="1321,289.3 1336.2,291.5 1336.2,360.8 1321,356.6" fill="#8A5CFF" opacity="0.3"/><polygon points="1036.8,292.2 1052,297.3 1052,329.8 1036.8,322.8" fill="#FF6B6B" opacity="0.3"/><polygon points="1055.8,298.6 1070.9,303.7 1070.9,338.7 1055.8,331.6" fill="#7FA36A" opacity="0.3"/><polygon points="1074.7,305 1089.9,310.1 1089.9,347.5 1074.7,340.4" fill="#FFC83D" opacity="0.3"/><polygon points="1093.6,311.4 1108.8,316.5 1108.8,356.4 1093.6,349.3" fill="#B79BFF" opacity="0.3"/><polygon points="1112.6,317.8 1127.8,322.9 1127.8,365.2 1112.6,358.1" fill="#2EE6D6" opacity="0.2"/><polygon points="1131.5,324.2 1146.7,329.3 1146.7,374.1 1131.5,367" fill="#2EE6D6" opacity="0.2"/><polygon points="1150.5,330.6 1165.7,335.7 1165.7,382.9 1150.5,375.8" fill="#E05CC8" opacity="0.3"/><polygon points="1169.5,337 1184.6,342.1 1184.6,391.8 1169.5,384.7" fill="#7FA36A" opacity="0.4"/><polygon points="1188.4,343.4 1203.6,348.5 1203.6,400.6 1188.4,393.5" fill="#8A5CFF" opacity="0.4"/><polygon points="1207.3,349.8 1222.5,354.9 1222.5,409.5 1207.3,402.4" fill="#8A5CFF" opacity="0.3"/><polygon points="1226.3,356.2 1241.5,361.3 1241.5,418.3 1226.3,411.2" fill="#2EE6D6" opacity="0.4"/><polygon points="1245.2,362.6 1260.4,367.7 1260.4,427.1 1245.2,420.1" fill="#FFC83D" opacity="0.4"/><polygon points="1264.2,369 1279.4,374.1 1279.4,436 1264.2,428.9" fill="#FF6B6B" opacity="0.4"/><polygon points="1283.2,375.4 1298.3,380.5 1298.3,444.8 1283.2,437.8" fill="#7FA36A" opacity="0.3"/><polygon points="1302.1,381.8 1317.3,386.9 1317.3,453.7 1302.1,446.6" fill="#B79BFF" opacity="0.2"/><polygon points="1321,388.2 1336.2,393.3 1336.2,462.5 1321,455.5" fill="#FF6B6B" opacity="0.3"/><polygon points="1036.8,337.1 1052,345.1 1052,377.7 1036.8,367.7" fill="#5B34D6" opacity="0.3"/><polygon points="1055.8,347.1 1070.9,355.1 1070.9,390.1 1055.8,380.1" fill="#FFC83D" opacity="0.3"/><polygon points="1074.7,357.1 1089.9,365.1 1089.9,402.5 1074.7,392.6" fill="#8A5CFF" opacity="0.4"/><polygon points="1093.6,367.1 1108.8,375.1 1108.8,415 1093.6,405" fill="#FF6B6B" opacity="0.2"/><polygon points="1112.6,377.1 1127.8,385.1 1127.8,427.4 1112.6,417.5" fill="#E05CC8" opacity="0.4"/><polygon points="1131.5,387.1 1146.7,395.1 1146.7,439.9 1131.5,429.9" fill="#E05CC8" opacity="0.3"/><polygon points="1150.5,397.1 1165.7,405.1 1165.7,452.3 1150.5,442.4" fill="#FF6B6B" opacity="0.3"/><polygon points="1169.5,407.1 1184.6,415.1 1184.6,464.8 1169.5,454.8" fill="#7FA36A" opacity="0.3"/><polygon points="1188.4,417.1 1203.6,425.1 1203.6,477.2 1188.4,467.3" fill="#2EE6D6" opacity="0.2"/><polygon points="1207.3,427.1 1222.5,435.1 1222.5,489.7 1207.3,479.7" fill="#2EE6D6" opacity="0.3"/><polygon points="1226.3,437.1 1241.5,445.1 1241.5,502.1 1226.3,492.1" fill="#8A5CFF" opacity="0.3"/><polygon points="1245.2,447.1 1260.4,455.1 1260.4,514.5 1245.2,504.6" fill="#2EE6D6" opacity="0.3"/><polygon points="1264.2,457.1 1279.4,465.1 1279.4,527 1264.2,517" fill="#2EE6D6" opacity="0.3"/><polygon points="1283.2,467.1 1298.3,475.1 1298.3,539.4 1283.2,529.5" fill="#FF6B6B" opacity="0.4"/><polygon points="1302.1,477.1 1317.3,485.1 1317.3,551.9 1302.1,541.9" fill="#7FA36A" opacity="0.3"/><polygon points="1321,487.1 1336.2,495.1 1336.2,564.3 1321,554.4" fill="#7FA36A" opacity="0.3"/><polygon points="1036.8,382.1 1052,393 1052,425.5 1036.8,412.7" fill="#8A5CFF" opacity="0.4"/><polygon points="1055.8,395.7 1070.9,406.6 1070.9,441.5 1055.8,428.7" fill="#FFC83D" opacity="0.3"/><polygon points="1074.7,409.3 1089.9,420.2 1089.9,457.6 1074.7,444.7" fill="#FF6B6B" opacity="0.4"/><polygon points="1093.6,422.9 1108.8,433.7 1108.8,473.6 1093.6,460.8" fill="#B79BFF" opacity="0.3"/><polygon points="1112.6,436.5 1127.8,447.3 1127.8,489.6 1112.6,476.8" fill="#FF6B6B" opacity="0.4"/><polygon points="1131.5,450.1 1146.7,460.9 1146.7,505.7 1131.5,492.9" fill="#B79BFF" opacity="0.4"/><polygon points="1150.5,463.7 1165.7,474.5 1165.7,521.7 1150.5,508.9" fill="#FF6B6B" opacity="0.4"/><polygon points="1169.5,477.2 1184.6,488.1 1184.6,537.8 1169.5,524.9" fill="#FF6B6B" opacity="0.3"/><polygon points="1188.4,490.8 1203.6,501.7 1203.6,553.8 1188.4,541" fill="#E05CC8" opacity="0.3"/><polygon points="1207.3,504.4 1222.5,515.3 1222.5,569.8 1207.3,557" fill="#FF6B6B" opacity="0.3"/><polygon points="1226.3,518 1241.5,528.9 1241.5,585.9 1226.3,573.1" fill="#5B34D6" opacity="0.3"/><polygon points="1245.2,531.6 1260.4,542.5 1260.4,601.9 1245.2,589.1" fill="#FF6B6B" opacity="0.2"/><polygon points="1264.2,545.2 1279.4,556.1 1279.4,618 1264.2,605.1" fill="#7FA36A" opacity="0.3"/><polygon points="1283.2,558.8 1298.3,569.7 1298.3,634 1283.2,621.2" fill="#B79BFF" opacity="0.4"/><polygon points="1302.1,572.4 1317.3,583.3 1317.3,650.1 1302.1,637.2" fill="#E05CC8" opacity="0.2"/><polygon points="1321,586 1336.2,596.9 1336.2,666.1 1321,653.3" fill="#8A5CFF" opacity="0.3"/><polygon points="1036.8,427 1052,440.8 1052,473.3 1036.8,457.6" fill="#8A5CFF" opacity="0.3"/><polygon points="1055.8,444.2 1070.9,458 1070.9,493 1055.8,477.2" fill="#5B34D6" opacity="0.3"/><polygon points="1074.7,461.4 1089.9,475.2 1089.9,512.6 1074.7,496.9" fill="#2EE6D6" opacity="0.4"/><polygon points="1093.6,478.6 1108.8,492.4 1108.8,532.2 1093.6,516.5" fill="#2EE6D6" opacity="0.4"/><polygon points="1112.6,495.8 1127.8,509.6 1127.8,551.9 1112.6,536.2" fill="#E05CC8" opacity="0.4"/><polygon points="1131.5,513 1146.7,526.7 1146.7,571.5 1131.5,555.8" fill="#8A5CFF" opacity="0.2"/><polygon points="1150.5,530.2 1165.7,543.9 1165.7,591.1 1150.5,575.4" fill="#2EE6D6" opacity="0.3"/><polygon points="1169.5,547.4 1184.6,561.1 1184.6,610.8 1169.5,595.1" fill="#8A5CFF" opacity="0.3"/><polygon points="1188.4,564.6 1203.6,578.3 1203.6,630.4 1188.4,614.7" fill="#E05CC8" opacity="0.3"/><polygon points="1207.3,581.8 1222.5,595.5 1222.5,650 1207.3,634.3" fill="#7FA36A" opacity="0.2"/><polygon points="1226.3,599 1241.5,612.7 1241.5,669.7 1226.3,654" fill="#FFC83D" opacity="0.3"/><polygon points="1245.2,616.1 1260.4,629.9 1260.4,689.3 1245.2,673.6" fill="#FFC83D" opacity="0.4"/><polygon points="1264.2,633.3 1279.4,647.1 1279.4,709 1264.2,693.3" fill="#E05CC8" opacity="0.2"/><polygon points="1283.2,650.5 1298.3,664.3 1298.3,728.6 1283.2,712.9" fill="#FF6B6B" opacity="0.4"/><polygon points="1302.1,667.7 1317.3,681.5 1317.3,748.2 1302.1,732.5" fill="#5B34D6" opacity="0.3"/><polygon points="1321,684.9 1336.2,698.7 1336.2,767.9 1321,752.2" fill="#8A5CFF" opacity="0.3"/><polygon points="243.2,461.2 1036.8,461.2 1340,780 -60,780" fill="url(#ec-floor)"/><ellipse cx="640" cy="640" rx="420" ry="84" fill="#5B4FB0" opacity=".55"/><ellipse cx="640" cy="640" rx="380" ry="72" fill="none" stroke="#FFC83D" stroke-width="3" opacity=".6"/><ellipse cx="640" cy="640" rx="300" ry="56" fill="none" stroke="#FFC83D" stroke-width="1.6" opacity=".45" stroke-dasharray="6 10"/><path d="M980 634Q981.7 638.3 986 640Q981.7 641.7 980 646Q978.3 641.7 974 640Q978.3 638.3 980 634Z" fill="#FFF3C4" opacity=".7"/><path d="M915.1 671.6Q916.7 675.9 921.1 677.6Q916.7 679.3 915.1 683.6Q913.4 679.3 909.1 677.6Q913.4 675.9 915.1 671.6Z" fill="#FFF3C4" opacity=".7"/><path d="M745.1 694.9Q746.7 699.2 751.1 700.9Q746.7 702.5 745.1 706.9Q743.4 702.5 739.1 700.9Q743.4 699.2 745.1 694.9Z" fill="#FFF3C4" opacity=".7"/><path d="M534.9 694.9Q536.6 699.2 540.9 700.9Q536.6 702.5 534.9 706.9Q533.3 702.5 528.9 700.9Q533.3 699.2 534.9 694.9Z" fill="#FFF3C4" opacity=".7"/><path d="M364.9 671.6Q366.6 675.9 370.9 677.6Q366.6 679.3 364.9 683.6Q363.3 679.3 358.9 677.6Q363.3 675.9 364.9 671.6Z" fill="#FFF3C4" opacity=".7"/><path d="M300 634Q301.7 638.3 306 640Q301.7 641.7 300 646Q298.3 641.7 294 640Q298.3 638.3 300 634Z" fill="#FFF3C4" opacity=".7"/><path d="M364.9 596.4Q366.6 600.7 370.9 602.4Q366.6 604.1 364.9 608.4Q363.3 604.1 358.9 602.4Q363.3 600.7 364.9 596.4Z" fill="#FFF3C4" opacity=".7"/><path d="M534.9 573.1Q536.6 577.5 540.9 579.1Q536.6 580.8 534.9 585.1Q533.3 580.8 528.9 579.1Q533.3 577.5 534.9 573.1Z" fill="#FFF3C4" opacity=".7"/><path d="M745.1 573.1Q746.7 577.5 751.1 579.1Q746.7 580.8 745.1 585.1Q743.4 580.8 739.1 579.1Q743.4 577.5 745.1 573.1Z" fill="#FFF3C4" opacity=".7"/><path d="M915.1 596.4Q916.7 600.7 921.1 602.4Q916.7 604.1 915.1 608.4Q913.4 604.1 909.1 602.4Q913.4 600.7 915.1 596.4Z" fill="#FFF3C4" opacity=".7"/><ellipse cx="620" cy="480" rx="560" ry="260" fill="url(#ec-halo)"/></g></svg>