<?xml version="1.0" encoding="UTF-8"?>
<svg xmlns="http://www.w3.org/2000/svg" viewBox="0 0 256 256" width="256" height="256" class="ob" id="obj_cosmetico_capa_estrellas" stroke-linejoin="round" stroke-linecap="round" data-state="destacado" data-marco="si" data-id="obj_cosmetico_capa_estrellas" data-nombre="Capa de estrellas" data-categoria="cosmetico" data-rareza="poco" data-precio="80" data-desbloqueo="Tienda (monedas o gemas)" data-grupo="Capas" role="img" aria-label="Capa de estrellas"><title>Capa de estrellas</title><style>.ob .o_art{transform-box:view-box;transform-origin:128px 160px}.ob[data-state="reposo"] .o_art{animation:o_bob 4s ease-in-out infinite}.ob[data-state="destacado"] .o_art{animation:o_hop 1s ease-in-out infinite}@keyframes o_bob{0%,100%{transform:translateY(0)}50%{transform:translateY(-5px)}}@keyframes o_hop{0%,100%{transform:translateY(0) scale(1)}30%{transform:translateY(-16px) scale(1.06)}55%{transform:translateY(0) scale(1.08,.93)}75%{transform:translateY(-4px) scale(1)}}.ob .o_hl{opacity:0}.ob[data-state="destacado"] .o_hl{opacity:1;animation:o_br 1.6s ease-in-out infinite}.ob .o_br{animation:o_br 4s ease-in-out infinite}@keyframes o_br{0%,100%{opacity:.45}50%{opacity:1}}.ob[data-state="destacado"] .o_br{animation-duration:1.6s}.ob .o_lock{display:none}.ob[data-state="bloqueado"] .o_lock{display:inline}.ob[data-state="bloqueado"] .o_fx,.ob[data-state="bloqueado"] .o_hl,.ob[data-state="bloqueado"] .o_extra{display:none}.ob[data-state="bloqueado"] .o_ring{stroke:#77738F}.ob[data-state="bloqueado"] .o_art{filter:url(#g57cf_sil)}.ob[data-state="bloqueado"] *{animation:none!important}.ob[data-marco="no"] .o_frame,.ob[data-marco="no"] .o_fx{display:none}@media (prefers-reduced-motion:reduce){.ob *{animation:none!important}}.ob .o_tw{transform-box:fill-box;transform-origin:center;animation:o_tw 2.6s ease-in-out infinite}@keyframes o_tw{0%,100%{opacity:.25;transform:scale(.7)}50%{opacity:1;transform:scale(1)}}</style><defs><radialGradient id="g57cf_tile" cx=".35" cy=".3" r=".8"><stop offset="0" stop-color="#3E3690"/><stop offset="1" stop-color="#171447"/></radialGradient><radialGradient id="g57cf_glow"><stop offset=".6" stop-color="#4ADE80" stop-opacity=".55"/><stop offset="1" stop-color="#4ADE80" stop-opacity="0"/></radialGradient><filter id="g57cf_sil" x="-10%" y="-10%" width="120%" height="120%"><feColorMatrix type="matrix" values="0 0 0 0 .52  0 0 0 0 .5  0 0 0 0 .62  0 0 0 1 0"/></filter></defs><g class="o_fx"></g><g class="o_frame"><circle cx="128" cy="128" r="104" fill="none" stroke="#4ADE80" stroke-width="10" class="o_hl" opacity="0"/><circle cx="128" cy="128" r="101" fill="#0E0C2B"/><circle cx="128" cy="128" r="95" fill="url(#g57cf_tile)" stroke="#4ADE80" stroke-width="8" class="o_ring"/><circle cx="128" cy="128" r="86" fill="none" stroke="#FFFFFF" stroke-opacity=".12" stroke-width="2"/><path d="M118 228V222A10 10 0 0 1 138 222V228" fill="none" stroke="#0E0C2B" stroke-width="3" opacity=".9"/></g><g class="o_art"><g transform="translate(128 128) scale(0.6) translate(-150 -320)"><path d="M108 206C96 260 84 330 74 422 Q150 444 226 422C216 330 204 260 192 206Z" fill="#241F5C" stroke="#0E0C2B" stroke-width="3.5"/><path d="M150 206H192C204 260 216 330 226 422 Q190 438 150 442Z" fill="#14123B" opacity="0.55"/><path d="M96 374Q98.4 379.6 104 382Q98.4 384.4 96 390Q93.6 384.4 88 382Q93.6 379.6 96 374Z" fill="#FFF6D6"/><path d="M196 345Q198.1 349.9 203 352Q198.1 354.1 196 359Q193.9 354.1 189 352Q193.9 349.9 196 345Z" fill="#FFF6D6"/><path d="M120 306Q121.8 310.2 126 312Q121.8 313.8 120 318Q118.2 313.8 114 312Q118.2 310.2 120 306Z" fill="#FFF6D6"/><path d="M210 396Q211.8 400.2 216 402Q211.8 403.8 210 408Q208.2 403.8 204 402Q208.2 400.2 210 396Z" fill="#FFF6D6"/><path d="M190 214C200 270 210 330 218 412" fill="none" stroke="#2EE6D6" stroke-width="3" opacity="0.8"/><circle cx="150" cy="206" r="9" fill="#FFC83D" stroke="#0E0C2B" stroke-width="2.4"/><path d="M150 201Q151.5 204.5 155 206Q151.5 207.5 150 211Q148.5 207.5 145 206Q148.5 204.5 150 201Z" fill="#FFFFFF"/></g></g><g class="o_fx"><g class="o_tw"><path d="M204 43Q207.3 50.7 215 54Q207.3 57.3 204 65Q200.7 57.3 193 54Q200.7 50.7 204 43Z" fill="#D9FBE6"/></g></g><g class="o_lock"><path d="M164 168V156A16 16 0 0 1 196 156V168" fill="none" stroke="#0E0C2B" stroke-width="13" stroke-linecap="round"/><path d="M164 168V156A16 16 0 0 1 196 156V168" fill="none" stroke="#E7E4F7" stroke-width="6" stroke-linecap="round"/><rect x="152" y="166" width="56" height="44" rx="10" fill="#E7E4F7" stroke="#0E0C2B" stroke-width="3.5"/><circle cx="180" cy="184" r="6" fill="#5E5A86"/><path d="M180 186v12" stroke="#5E5A86" stroke-width="5" stroke-linecap="round"/></g></svg>