<?xml version="1.0" encoding="UTF-8"?>
<svg xmlns="http://www.w3.org/2000/svg" viewBox="0 0 256 256" width="256" height="256" class="ob" id="obj_foco_libro" stroke-linejoin="round" stroke-linecap="round" data-state="bloqueado" data-marco="si" data-id="obj_foco_libro" data-nombre="Libro de hechizos" data-categoria="foco" data-rareza="raro" data-precio="200" data-desbloqueo="Tienda" role="img" aria-label="Libro de hechizos"><title>Libro de hechizos</title><style>.ob .o_art{transform-box:view-box;transform-origin:128px 160px}.ob[data-state="reposo"] .o_art{animation:o_bob 4s ease-in-out infinite}.ob[data-state="destacado"] .o_art{animation:o_hop 1s ease-in-out infinite}@keyframes o_bob{0%,100%{transform:translateY(0)}50%{transform:translateY(-5px)}}@keyframes o_hop{0%,100%{transform:translateY(0) scale(1)}30%{transform:translateY(-16px) scale(1.06)}55%{transform:translateY(0) scale(1.08,.93)}75%{transform:translateY(-4px) scale(1)}}.ob .o_hl{opacity:0}.ob[data-state="destacado"] .o_hl{opacity:1;animation:o_br 1.6s ease-in-out infinite}.ob .o_br{animation:o_br 4s ease-in-out infinite}@keyframes o_br{0%,100%{opacity:.45}50%{opacity:1}}.ob[data-state="destacado"] .o_br{animation-duration:1.6s}.ob .o_lock{display:none}.ob[data-state="bloqueado"] .o_lock{display:inline}.ob[data-state="bloqueado"] .o_fx,.ob[data-state="bloqueado"] .o_hl,.ob[data-state="bloqueado"] .o_extra{display:none}.ob[data-state="bloqueado"] .o_ring{stroke:#77738F}.ob[data-state="bloqueado"] .o_art{filter:url(#g1f6c_sil)}.ob[data-state="bloqueado"] *{animation:none!important}.ob[data-marco="no"] .o_frame,.ob[data-marco="no"] .o_fx{display:none}@media (prefers-reduced-motion:reduce){.ob *{animation:none!important}}</style><defs><radialGradient id="g1f6c_tile" cx=".35" cy=".3" r=".8"><stop offset="0" stop-color="#3E3690"/><stop offset="1" stop-color="#171447"/></radialGradient><radialGradient id="g1f6c_glow"><stop offset=".6" stop-color="#2EE6D6" stop-opacity=".55"/><stop offset="1" stop-color="#2EE6D6" stop-opacity="0"/></radialGradient><filter id="g1f6c_sil" x="-10%" y="-10%" width="120%" height="120%"><feColorMatrix type="matrix" values="0 0 0 0 .52  0 0 0 0 .5  0 0 0 0 .62  0 0 0 1 0"/></filter></defs><g class="o_fx"><circle cx="128" cy="128" r="118" fill="url(#g1f6c_glow)" class="o_br"/></g><g class="o_frame"><circle cx="128" cy="128" r="104" fill="none" stroke="#2EE6D6" stroke-width="10" class="o_hl" opacity="0"/><circle cx="128" cy="128" r="101" fill="#0E0C2B"/><circle cx="128" cy="128" r="95" fill="url(#g1f6c_tile)" stroke="#2EE6D6" stroke-width="8" class="o_ring"/><circle cx="128" cy="128" r="86" fill="none" stroke="#FFFFFF" stroke-opacity=".12" stroke-width="2"/><path d="M118 228V222A10 10 0 0 1 138 222V228" fill="none" stroke="#0E0C2B" stroke-width="3" opacity=".9"/></g><g class="o_art"><path d="M74 92H182V194H74Z" fill="#5B34D6" stroke="#0E0C2B" stroke-width="3.5"/><path d="M150 92H182V194H150Z" fill="#3B2A9E" opacity="0.6"/><path d="M84 84H174V184H84Z" fill="#F7EBC8" stroke="#0E0C2B" stroke-width="2.4"/><path d="M74 92H182V194H74Z" fill="none" stroke="#0E0C2B" stroke-width="3.5"/><path d="M102.8 162.4V134.4A25.2 25.2 0 0 1 153.2 134.4V162.4" fill="none" stroke="#FFC83D" stroke-width="7"/><path d="M128 123.2Q132.2 133 142 137.2Q132.2 141.4 128 151.2Q123.8 141.4 114 137.2Q123.8 133 128 123.2Z" fill="#2EE6D6"/><path d="M80 100V186" fill="none" stroke="#FFC83D" stroke-width="4"/><path d="M186 63Q188.7 69.3 195 72Q188.7 74.7 186 81Q183.3 74.7 177 72Q183.3 69.3 186 63Z" fill="#FFFFFF"/></g><g class="o_fx"></g><g class="o_lock"><path d="M164 168V156A16 16 0 0 1 196 156V168" fill="none" stroke="#0E0C2B" stroke-width="13" stroke-linecap="round"/><path d="M164 168V156A16 16 0 0 1 196 156V168" fill="none" stroke="#E7E4F7" stroke-width="6" stroke-linecap="round"/><rect x="152" y="166" width="56" height="44" rx="10" fill="#E7E4F7" stroke="#0E0C2B" stroke-width="3.5"/><circle cx="180" cy="184" r="6" fill="#5E5A86"/><path d="M180 186v12" stroke="#5E5A86" stroke-width="5" stroke-linecap="round"/></g></svg>