<?xml version="1.0" encoding="UTF-8"?>
<svg xmlns="http://www.w3.org/2000/svg" viewBox="0 0 256 256" width="256" height="256" class="ob" id="obj_cosmetico_aura_chispas" stroke-linejoin="round" stroke-linecap="round" data-state="bloqueado" data-marco="si" data-id="obj_cosmetico_aura_chispas" data-nombre="Aura de chispas" data-categoria="cosmetico" data-rareza="raro" data-precio="200" data-desbloqueo="Tienda (monedas o gemas)" data-grupo="Auras" role="img" aria-label="Aura de chispas"><title>Aura de chispas</title><style>.ob .o_art{transform-box:view-box;transform-origin:128px 160px}.ob[data-state="reposo"] .o_art{animation:o_bob 4s ease-in-out infinite}.ob[data-state="destacado"] .o_art{animation:o_hop 1s ease-in-out infinite}@keyframes o_bob{0%,100%{transform:translateY(0)}50%{transform:translateY(-5px)}}@keyframes o_hop{0%,100%{transform:translateY(0) scale(1)}30%{transform:translateY(-16px) scale(1.06)}55%{transform:translateY(0) scale(1.08,.93)}75%{transform:translateY(-4px) scale(1)}}.ob .o_hl{opacity:0}.ob[data-state="destacado"] .o_hl{opacity:1;animation:o_br 1.6s ease-in-out infinite}.ob .o_br{animation:o_br 4s ease-in-out infinite}@keyframes o_br{0%,100%{opacity:.45}50%{opacity:1}}.ob[data-state="destacado"] .o_br{animation-duration:1.6s}.ob .o_lock{display:none}.ob[data-state="bloqueado"] .o_lock{display:inline}.ob[data-state="bloqueado"] .o_fx,.ob[data-state="bloqueado"] .o_hl,.ob[data-state="bloqueado"] .o_extra{display:none}.ob[data-state="bloqueado"] .o_ring{stroke:#77738F}.ob[data-state="bloqueado"] .o_art{filter:url(#g922f_sil)}.ob[data-state="bloqueado"] *{animation:none!important}.ob[data-marco="no"] .o_frame,.ob[data-marco="no"] .o_fx{display:none}@media (prefers-reduced-motion:reduce){.ob *{animation:none!important}}.ob .a_sp,.ca_sp{transform-box:view-box;transform-origin:150px 270px;animation:a_sp 14s linear infinite}.ob .a_br,.ca_br{animation:a_br 3.6s ease-in-out infinite}@keyframes a_sp{to{transform:rotate(360deg)}}@keyframes a_br{0%,100%{opacity:.55}50%{opacity:1}}</style><defs><radialGradient id="g922f_tile" cx=".35" cy=".3" r=".8"><stop offset="0" stop-color="#3E3690"/><stop offset="1" stop-color="#171447"/></radialGradient><radialGradient id="g922f_glow"><stop offset=".6" stop-color="#2EE6D6" stop-opacity=".55"/><stop offset="1" stop-color="#2EE6D6" stop-opacity="0"/></radialGradient><filter id="g922f_sil" x="-10%" y="-10%" width="120%" height="120%"><feColorMatrix type="matrix" values="0 0 0 0 .52  0 0 0 0 .5  0 0 0 0 .62  0 0 0 1 0"/></filter></defs><g class="o_fx"><circle cx="128" cy="128" r="118" fill="url(#g922f_glow)" class="o_br"/></g><g class="o_frame"><circle cx="128" cy="128" r="104" fill="none" stroke="#2EE6D6" stroke-width="10" class="o_hl" opacity="0"/><circle cx="128" cy="128" r="101" fill="#0E0C2B"/><circle cx="128" cy="128" r="95" fill="url(#g922f_tile)" stroke="#2EE6D6" stroke-width="8" class="o_ring"/><circle cx="128" cy="128" r="86" fill="none" stroke="#FFFFFF" stroke-opacity=".12" stroke-width="2"/><path d="M118 228V222A10 10 0 0 1 138 222V228" fill="none" stroke="#0E0C2B" stroke-width="3" opacity=".9"/></g><g class="o_art"><g transform="translate(128 128) scale(0.3) translate(-150 -270)"><path d="M150 70C178 70 196 92 196 122C196 150 180 170 168 178L196 198C214 210 222 240 222 280V350H196V480H104V350H78V280C78 240 86 210 104 198L132 178C120 170 104 150 104 122C104 92 122 70 150 70Z" fill="#6A5FD0" opacity=".55"/><ellipse cx="150" cy="270" rx="118" ry="214" fill="none" stroke="#2EE6D6" stroke-width="16" opacity=".35" class="a_br ca_br"/><g class="a_sp ca_sp"><path d="M262 261Q264.7 267.3 271 270Q264.7 272.7 262 279Q259.3 272.7 253 270Q259.3 267.3 262 261Z" fill="#B8FFF8"/><path d="M247 361Q249.7 367.3 256 370Q249.7 372.7 247 379Q244.3 372.7 238 370Q244.3 367.3 247 361Z" fill="#B8FFF8"/><path d="M206 434.2Q208.7 440.5 215 443.2Q208.7 445.9 206 452.2Q203.3 445.9 197 443.2Q203.3 440.5 206 434.2Z" fill="#B8FFF8"/><path d="M150 461Q152.7 467.3 159 470Q152.7 472.7 150 479Q147.3 472.7 141 470Q147.3 467.3 150 461Z" fill="#B8FFF8"/><path d="M94 434.2Q96.7 440.5 103 443.2Q96.7 445.9 94 452.2Q91.3 445.9 85 443.2Q91.3 440.5 94 434.2Z" fill="#B8FFF8"/><path d="M53 361Q55.7 367.3 62 370Q55.7 372.7 53 379Q50.3 372.7 44 370Q50.3 367.3 53 361Z" fill="#B8FFF8"/><path d="M38 261Q40.7 267.3 47 270Q40.7 272.7 38 279Q35.3 272.7 29 270Q35.3 267.3 38 261Z" fill="#B8FFF8"/><path d="M53 161Q55.7 167.3 62 170Q55.7 172.7 53 179Q50.3 172.7 44 170Q50.3 167.3 53 161Z" fill="#B8FFF8"/><path d="M94 87.8Q96.7 94.1 103 96.8Q96.7 99.5 94 105.8Q91.3 99.5 85 96.8Q91.3 94.1 94 87.8Z" fill="#B8FFF8"/><path d="M150 61Q152.7 67.3 159 70Q152.7 72.7 150 79Q147.3 72.7 141 70Q147.3 67.3 150 61Z" fill="#B8FFF8"/><path d="M206 87.8Q208.7 94.1 215 96.8Q208.7 99.5 206 105.8Q203.3 99.5 197 96.8Q203.3 94.1 206 87.8Z" fill="#B8FFF8"/><path d="M247 161Q249.7 167.3 256 170Q249.7 172.7 247 179Q244.3 172.7 238 170Q244.3 167.3 247 161Z" fill="#B8FFF8"/></g></g></g><g class="o_fx"></g><g class="o_lock"><path d="M164 168V156A16 16 0 0 1 196 156V168" fill="none" stroke="#0E0C2B" stroke-width="13" stroke-linecap="round"/><path d="M164 168V156A16 16 0 0 1 196 156V168" fill="none" stroke="#E7E4F7" stroke-width="6" stroke-linecap="round"/><rect x="152" y="166" width="56" height="44" rx="10" fill="#E7E4F7" stroke="#0E0C2B" stroke-width="3.5"/><circle cx="180" cy="184" r="6" fill="#5E5A86"/><path d="M180 186v12" stroke="#5E5A86" stroke-width="5" stroke-linecap="round"/></g></svg>